<?xml version="1.0" encoding="utf-8"?>
<!-- Generator: Adobe Illustrator 20.1.0, SVG Export Plug-In . SVG Version: 6.00 Build 0)  -->
<!DOCTYPE svg PUBLIC "-//W3C//DTD SVG 1.1//EN" "http://www.w3.org/Graphics/SVG/1.1/DTD/svg11.dtd">
<svg version="1.1" id="Layer_1" xmlns="http://www.w3.org/2000/svg" xmlns:xlink="http://www.w3.org/1999/xlink" x="0px" y="0px"
	 width="300px" height="74.4px" viewBox="0 0 300 74.4" style="enable-background:new 0 0 300 74.4;" xml:space="preserve">
<style type="text/css">
	.st0{fill:#00AEEF;}
	.st1{fill:#0096D6;}
	.st2{fill:#54BCEB;}
	.st3{fill:#949CA1;}
</style>
<path class="st0" d="M85.9,51v-0.4c0,0.1,0,0.2,0,0.3C85.9,50.9,85.9,50.9,85.9,51z"/>
<path class="st0" d="M253.3,22.1c0,0.1,0,0.1-0.1,0.2C253.3,22.2,253.3,22.2,253.3,22.1C253.3,22.1,253.3,22.1,253.3,22.1z"/>
<g>
	<path class="st1" d="M209.8,23.7c0,0.1-0.1,0.1-0.2,0.1c-0.3,0-0.6,0-0.8-0.3c0-0.3,0.2-0.6,0.5-0.8c0,0,0,0,0,0
		c-0.3,0-0.3-0.5-0.4-0.7c-0.3-0.3-0.2-0.2-0.6-0.2c-0.5,0-1.3,0.1-1.5,0.6c-0.1,0.2,0.1,1.8,0,1.9c-0.7,0.2-1.6,0.4-2.4,0.8
		c-0.5,0.3-0.7,0.9-1.4,0.9c0,0-0.1,0-0.1,0c0.8,1.4,1.2,3.1,1.2,4.8c0,2,1.6,3.6,3.6,3.6c2,0,3.6-1.6,3.6-3.6
		C211.4,28.4,210.9,25.9,209.8,23.7z M205.5,29.5l-0.1-0.2l0.1,0L205.5,29.5z M208.5,31.5c-0.1,0.1-0.3,0.2-0.4,0
		c-0.4-0.4,0-1,0.2-1.4c0-0.5-0.5-1.2,0.2-1.5C209.4,29.2,208,30.5,208.5,31.5z"/>
	<g>
		<path class="st1" d="M195.6,29.1c-0.3-0.4,0.3-0.7,0.3-1.2c0,0,0,0,0,0c-0.5-0.3-1.1-0.5-1.8-0.5c0,0-0.1,0-0.1,0
			c0,0.5,0.3,1.2,0.1,1.6c-0.7,0-1.2-0.6-1.9-0.7c-0.5-0.1-0.5,0.5-0.9,0.6c0,0,0,0,0,0c-0.5,0.6-0.7,1.3-0.7,2.2v7.8
			c0,5.8-4.7,10.5-10.5,10.5c-5.8,0-10.5-4.7-10.5-10.5c0-2-1.6-3.6-3.6-3.6c-2,0-3.6,1.6-3.6,3.6c0,9.8,8,17.8,17.8,17.8
			c9.8,0,17.8-8,17.8-17.8V31c0-0.1,0-0.3,0-0.4C196.7,31.1,196.5,29.3,195.6,29.1z M170.4,43.4l0.1,0.2l-0.1,0
			c-0.1,0-0.1-0.1-0.1-0.2L170.4,43.4z M170.2,53.5c-0.1,0.1-0.2-0.1-0.3-0.1c-0.1-0.3,0.5-0.6,0.5-0.2
			C170.4,53.3,170.3,53.4,170.2,53.5z M170.2,50.9c-0.6-0.6-0.7-1.3-0.8-2c0-1,1.4-1.6,2.3-1.3c0.1,0.9,1,1.2,1,2.1
			c0,0.4-0.3,0.9-0.6,1.1C171.4,51.2,170.8,51.3,170.2,50.9z M172.3,52.6c-0.3,0.3-0.8,0.4-1.1,0.1c0.2-0.7,1-0.6,1.5-0.6
			C172.7,52.3,172.4,52.3,172.3,52.6z M174.4,51.1c-0.2,0.2-0.4,0.5-0.7,0.4c0-0.4,0.2-0.9,0.7-1.1
			C174.8,50.5,174.4,50.9,174.4,51.1z M175.6,53.1c0,0-0.2,0-0.2-0.1c0-0.1,0.3-0.2,0.3-0.1C175.8,53.1,175.7,53.1,175.6,53.1z
			 M176.7,50.3c-0.1,0-0.2,0-0.2-0.1c-0.1-0.3,0.5-0.5,0.7-0.3C177,50.1,176.9,50.2,176.7,50.3z M193.7,32.6
			c-0.5,0.2-0.9,0.1-1.4-0.1c-0.5-0.4,0-1,0.2-1.5c0.2-0.5,0-1.2,0.7-1.2c0.2,0.7,0.7,1.1,1.2,1.5C194.4,31.9,193.9,32.1,193.7,32.6
			z"/>
		<path class="st1" d="M9.4,17.5c-0.1,0.3,0.1,0.6,0.5,0.6c1.3-0.4,2.2,1.5,3.4,0.4c0.4-0.4-0.3-1.1,0.6-1.2c0.3,0,0.5,0.2,0.7,0.3
			c0.6,0.5-0.2,0.9-0.3,1.3c0.1,0.9,1.1,0.6,1.7,0.9c1.3,0,1.4-1.4,2.5-1.7c0.4-0.9,0.9-1.8,1.9-2c0.2-0.6,0.8-1,0.9-1.6
			c0-0.1,0-0.1,0.1-0.2c-0.5,0-1.1-0.1-1.7-0.1c-3.7,0-6.9,0.9-9.8,2.5C9.7,17,9.4,17.2,9.4,17.5z"/>
		<path class="st1" d="M22.1,15.5c-0.1,0.5,0.5,0.4,0.7,0.3c0.6-0.7,1.4-0.5,2.1-0.8c-0.4-0.1-0.8-0.2-1.2-0.3
			c-0.1,0.1-0.2,0.1-0.3,0.1c-0.3,0-0.4-0.1-0.6-0.3c-0.3,0-0.6-0.1-0.8-0.1C22.2,14.8,22.3,15.2,22.1,15.5z"/>
		<path class="st1" d="M25.2,17.1c-0.3,1.2,0.3,2.7-1,3.5c-0.4,0.1-1.1,0.1-1,0.7c0.1,0.2,0.1,0.5,0.2,0.7c2.2,0.7,4,1.9,5.5,3.7
			c1.2,1.6,3.5,1.8,5.1,0.6c0.1-0.1,0.2-0.2,0.4-0.4c0,0-0.1-0.1-0.1-0.1c0-0.2,0.2-0.5,0.4-0.4c0.5-0.7,0.7-1.5,0.6-2.3
			c-0.3-0.1-0.5-0.3-0.7-0.5c-0.1-0.2,0.1-0.3,0.3-0.4c0.1,0,0.2,0,0.2,0.1c-0.1-0.4-0.3-0.8-0.6-1.1c-2.2-2.8-5.2-4.8-8.5-6
			c-0.2,0.1-0.4,0.2-0.5,0.3C25.1,16.1,24.7,16.6,25.2,17.1z"/>
		<path class="st1" d="M24.2,16.9c-0.3-0.5-1.1,0-1.1,0.4c0.1,0.1,0.2,0.2,0.4,0.3C23.9,17.5,24.2,17.3,24.2,16.9z"/>
		<path class="st1" d="M38.8,28.7c0.4,0.2-0.1,0.6-0.2,0.9c0.1,0.9,1.1,0.8,1.7,1.3c0.5,0.1,0.8-0.3,0.9-0.7c0.1-1-1.2-0.5-1.6-1
			c0.4-0.3,0.9-0.2,1.3-0.5c0.2-0.4,0.2-0.9,0.3-1.3c0-1,1-1.2,1.3-2c0.1-1-1.3-0.2-1.1-1.2c0.1-0.3,0.1-0.9,0.4-1
			c0.6,0,0.8,0.7,1.2,1c1.3,0.6,2.6,0.5,3.8-0.1c0.4,0.2,0.8,0.2,1.3,0.2c0.6-0.5,1.3-1,2.1-1.4c0.1-0.2,0.1-0.3,0.1-0.5
			c0.4-0.3,0.8-0.4,1.3-0.4c0.2,0.1,0.4,0.1,0.7,0.1c1.1-0.3,2.3-0.5,3.5-0.5c1.9,0,3.6,0.4,5,1c0,0,0,0,0,0c0.2,0.1,0.5,0,0.4,0.2
			c0.9,0.4,1.7,1,2.4,1.7c0,0,0-0.1,0-0.1c-0.4-0.6-1.3-0.8-1.6-1.5c0.5-0.2,1.1-0.6,1.7-0.3c0.4,0.7-0.2,1.8,0.8,2.2L64.4,25
			c2.2,2.3,3.4,5.6,3.7,8.9c0.5-0.4,1.1-0.2,1.7-0.6c0.5-0.8-0.4-1.3-0.7-1.9c0.5-1.2-0.7-2.4-0.6-3.6c-0.2-0.7-0.2-1.6-0.8-1.9
			c-1-0.2-2.2-0.4-2.8-1.3c0.3-0.1,0.6-0.2,0.8-0.4c0.5-0.2,0.7,0.3,1.2,0.4c0.4,0,0.7-0.3,1-0.5c0.4-0.8,0.8-2.1,2.1-2
			c0.5,0,0.8,0.3,1,0.7c1.5,0.2,1.5,1.9,2.4,2.8c0.1,0.1,0.2,0.1,0.3,0.2c-3.1-7.1-9.5-11.6-17.7-11.6c-9.2,0-16.2,5.7-18.7,14.5
			C37.6,29.3,38.2,28.8,38.8,28.7z M39.7,24c0.4-0.1,0.5,0.4,0.7,0.6c0.2,0.3,0.2,0.6-0.2,0.7c-0.3,0.1-0.3-0.3-0.5-0.4
			C39.7,24.6,39.3,24.3,39.7,24z"/>
		<path class="st1" d="M44.2,28.3c0-0.5,0.5-0.7,0.8-1c0.2-0.7,0.5-1.4,1.2-1.6c0.1-0.1,0.1-0.3-0.1-0.3c-0.4-0.1-0.7,0.3-1.1,0.2
			c-1,0-2.8,0.4-2.9,1.7c0,0.4-0.5,0.9,0,1.3l0.8,0.2c-0.1,0.7-1.4,0.7-1.1,1.6c0.6,0.7-0.3,1.3,0.1,2c0.4,0.4,0.7,1.2,1.4,0.9
			c0.1,0,0.2,0,0.4-0.1c0.2-1.7,0.7-3.4,1.5-5C44.8,28.3,44.5,28.4,44.2,28.3z"/>
		<path class="st1" d="M73.4,34.1c0.1,0.5,0.4,0.8,0.7,1c0.4,0.3,0.9,0.4,1.3,0.6c0-0.7,0-1.4-0.1-2.1l-0.9-0.3
			C74.2,33.5,73.5,33.6,73.4,34.1z"/>
		<path class="st1" d="M72.6,30.2c-0.9-0.9-1.5-2.2-2.4-3.1c0.2-0.4,0.8-0.5,1.2-0.8c0.4-0.2,0.3-0.6,0.2-1c-0.5-0.9-1-2.4-2.2-2.4
			c-0.4,0.3-1.2,0.3-1.2,0.9c0.4,1.1,0.9,2.1,1.7,2.9c0.1,0.4-0.9,0.7-0.5,1.3c0.2,0.8,1,1.6,0.3,2.3c0.7,0.5,0.4,1.5,0.9,2
			c1.5,0.4,2.9-1.2,4.4-0.1c0.1-0.1,0.2-0.1,0.3-0.2c-0.1-0.6-0.2-1.2-0.3-1.7C74.2,30.7,73.4,30.3,72.6,30.2z"/>
		<path class="st1" d="M153.3,27.3c-0.6-0.7-1.5,0.2-2.1-0.5c-0.7-0.1-1.4,0.1-1.8,0.6c0.5,1,1,2,1.3,3.1c0.1,0,0.1,0,0.2,0
			c0.5,0.5,1.2,0.3,1.9,0.2c0.4-0.1,0.7,0.3,1.1,0.2c0.6,0.5,1.3,0.3,2,0.5c0.8-0.1,1.6,0.2,2.5,0.2c0-0.1,0.1-0.2,0.1-0.3
			c-0.2-1.3-0.5-2.6-0.9-3.8C156,27.1,154.6,28,153.3,27.3z M153.1,30.4c-0.2,0-0.4-0.1-0.4-0.3c-0.1-0.6,0.6-0.2,0.7,0.1
			C153.4,30.4,153.2,30.4,153.1,30.4z"/>
		<path class="st1" d="M133.5,22.7c-0.2-0.2-0.5-0.3-0.8-0.2c-1,1-2.3,0.1-3.2,0.6c-0.2,0.4-0.2,1-0.2,1.4c0.4,0.5,0.3,1,0.3,1.5
			C130.6,24.7,131.9,23.5,133.5,22.7z"/>
		<path class="st1" d="M122.9,24.6c0.7-0.5,1.3-1.1,2-1.5c0.3,0,0.6,0.1,0.7,0.4c-0.1,0.9-1.2,0.9-1.9,1.3c-0.3,0.2-0.5,0.5-0.3,0.8
			c1.2,0.5,2.4,1.5,3.7,1c0.6-0.1,0.6,0.7,1.3,0.7c0.2-0.1,0.3-0.2,0.4-0.4c-0.4-0.8,0-1.7-0.5-2.5c-0.1-0.8,0.3-2-0.7-2.4
			c-0.6,0-0.9,0.5-1,1c-0.1,0.4-0.4,0.3-0.7,0.2c-0.1-0.4,0.1-0.8,0.2-1.2c1.1-0.4,1.9-2.4,3.2-1.1c0.2,0.7,1,1,1.6,1.4l1.6-0.3
			c0.4,0,0.4,0.6,0.8,0.4c0.4-0.4,0.9-0.2,1.4,0c1.3-0.4,2.7-0.7,4.3-0.7c1.1,0,2,0.1,3,0.3c0-0.1-0.1-0.1-0.1-0.2
			c-0.1-0.2,0-0.4,0.2-0.5c0.3,0,0.7,0.1,0.8,0.5c0,0.1,0.1,0.3,0,0.4c1.8,0.6,3.3,1.5,4.5,2.8c0.7,0,1.5,0.6,2.2,0.2
			c1.2,0.3,2.4,1,3.7,1.1c0.6-0.3,1.4,0.2,1.7-0.5c0.3,0.1,0.6,0.2,0.7,0.5c0.4,0.3,0.8,0.4,1.1,0.3c-1.5-3.8-3.9-6.9-7.1-9
			c0,0,0,0,0,0.1c0.1,0.5-0.4,0.8-0.8,0.9c-0.2-1-1.4-0.9-1.6-1.8c0.3,0.1,0.6,0,0.8-0.1c-0.8-0.4-1.6-0.8-2.4-1.1
			c-0.1,0.1-0.1,0.2-0.2,0.2c-0.1,0.2-0.4,0.1-0.4,0c-0.3-0.2-0.2-0.4-0.1-0.5c-1.9-0.6-4-0.9-6.2-0.9c-8.2,0-14.6,4.5-17.7,11.6
			C122,25.7,122.7,25.4,122.9,24.6z M152.6,23.7c0.2,0,0.3,0.3,0.2,0.4c-0.1,0.1-0.3,0.1-0.5-0.1C152.2,23.8,152.5,23.7,152.6,23.7z
			 M151.4,20.3c0.1,0.1,0.4,0.2,0.3,0.5l-0.3,0.1C151.3,20.7,151.5,20.5,151.4,20.3z M147.6,19c0.2,0,0.4,0,0.5,0.1
			c0,0.2-0.3,0.3-0.5,0.4c-0.1,0-0.3-0.1-0.3-0.3C147.3,19.1,147.4,19,147.6,19z M145.7,18.2c0.1,0.2-0.2,0.3-0.2,0.4
			c-0.1,0-0.2,0-0.2-0.2C145.2,18.1,145.5,18.2,145.7,18.2z M143,17l0,0.4c-0.1,0-0.2,0.1-0.3,0.1c0,0,0-0.1,0-0.2L143,17z"/>
		<path class="st1" d="M122.1,30.4c1,0.7,1.4-0.6,2.1-0.8c1,0.4,2,0.3,3-0.2c0.3-0.2,0.7-0.5,0.7-0.9c-0.1-0.7-0.8-0.4-1.3-0.4
			c-0.7,0-1.4,0.6-2,0c-0.3-0.4-0.6-0.8-1.1-0.9c-1,0.1-0.8,1.4-1.7,1.6C121.3,29.2,121.8,29.9,122.1,30.4z"/>
		<path class="st1" d="M279.9,54.5c0.3-0.1,0.5-0.5,0.5-0.8c0-0.3-0.2-0.5-0.5-0.5c-0.3,0.2-0.8,0.3-0.8,0.7
			C279.1,54.4,279.5,54.6,279.9,54.5z"/>
		<path class="st1" d="M277.9,53.4c0.4,0.4,0.8-0.2,1.1-0.2c0.3-0.4-0.2-0.8-0.5-1c-0.5-0.3-0.9,0.1-0.9,0.6
			C277.8,53,277.8,53.2,277.9,53.4z"/>
		<path class="st1" d="M281.7,53.8c-0.6,0.8-1.7,1.7-2.8,1.5c-0.5,0.4-1-0.1-1.5-0.2c-0.3-0.4-0.7-0.5-1.1-0.5c-0.7,0.2-1.3,1-2,0.7
			c0-0.5,0.5-0.7,0.8-1c0.2-0.7,0.5-1.4,1.2-1.6c0.1-0.1,0.1-0.3-0.1-0.3c-0.4-0.1-0.7,0.3-1.1,0.2c-1,0-2.8,0.4-2.9,1.7
			c0,0.4-0.5,0.9,0,1.3l0.8,0.2c0,0.1-0.1,0.2-0.1,0.3c2.3,0.9,4.8,1.4,7.6,1.4c1.8,0,3.5-0.2,5.1-0.6c-0.1-0.3-0.2-0.5-0.4-0.8
			C284.1,55.3,283.2,54,281.7,53.8z"/>
		<path class="st1" d="M286.9,49.6c0.7,0.7,1.6-0.3,2.3,0.3c-0.8,1.1-2-0.3-2.9,0.3c-0.8-0.4-1.6-0.2-2.4-0.2
			c-1.1,0.3-2.2,0.5-3.4,0.5c-0.1,0.3,0.2,0.7,0.2,0.9c0.2,0.6,0.8,0.5,1.2,0.7c0.4,1.8,2.5,1.8,3.4,3c0.3,0.6,0.6,1.2,0.8,1.7
			c2.8-0.8,5.4-2.3,7.5-4.4c-0.1-0.4,0.1-0.7,0.2-1c-0.4-0.6-1.3-0.8-1.6-1.5c0.5-0.2,1.1-0.6,1.7-0.3c0.3,0.6-0.1,1.5,0.5,2
			c0.7-0.8,1.4-1.7,2.1-2.7c1.1-1.7,0.6-3.9-1.1-5c-1.7-1.1-3.9-0.6-5,1.1c-1.2,2-2.9,3.4-4.9,4.3C286,49.5,286.4,49.7,286.9,49.6z
			 M291,49.7c0.2,0.1,0.5,0,0.4,0.2l-0.6,0.3c-0.2,0-0.5,0.1-0.7-0.2C290.3,49.8,290.7,49.7,291,49.7z"/>
		<path class="st1" d="M113.2,36.2c-0.2,0.1-0.5,0.2-0.4,0.5c0.2,0.3,0.5,0.6,0.8,0.5c0.3-0.3,0.9-0.3,0.9-0.8
			C114.2,36.1,113.6,36.2,113.2,36.2z"/>
		<path class="st1" d="M110.5,32.4c0,0.3-0.4,0.4-0.5,0.6c-0.2,0.2-0.4,0.7,0,0.9c1.8,0.9,0.3-1.5,1.7-1.7c0.4-0.1,0.8-0.3,1.1,0
			c0.2,0.7-0.3,1.3,0.2,2c0.3,0.2,0.5,0.7,1,0.5c0.3-0.4-0.5-0.4-0.5-0.8c0.3-0.4,0.9-0.4,1.3-0.7c0.3-0.2,0.6,0.3,0.9,0
			c0-0.1,0-0.2,0-0.3c-0.1-0.6-0.1-1.3-0.2-1.9c0,0.2,0,0.4,0,0.6c-0.3,0.4-0.7,0.2-1,0.2c-0.2-0.1-0.4-0.4-0.2-0.6
			c0.4-0.3,0.7-0.8,1-1.2c-0.1-0.6-0.2-1.1-0.4-1.6c-0.6,0.3-1.3,0.1-1.9,0.3c-1.1,0.5-2.3-0.3-3.4,0.6c-0.7-0.1-1.4,0-2,0.1
			c0.2,0.6,0.4,1.3,0.5,1.9c0.5,0.1,0.9,0.2,1.4,0.2C110,31.3,110.3,31.9,110.5,32.4z"/>
		<path class="st1" d="M85,36.1c0.3-0.2,0.7-0.3,1-0.5v-1c0-0.4,0.1-0.9,0.1-1.3c-0.4,0.2-0.9,0.4-1.4,0.2c-0.7,0-0.7,0.9-1.3,1.1
			l-0.2-0.3c-1.3-0.8-3-1.1-4.5-0.7V54c0,2,1.6,3.6,3.6,3.6c2,0,3.6-1.6,3.6-3.6v-1c-0.5-0.2-1.1,0-1.5,0.3c-0.6-0.2-0.7-1-1.1-1.4
			c0-0.7,0.8-0.8,1.3-1c1-0.6,0.7-1.9,1.1-2.8c0.1,0,0.2-0.1,0.2-0.1v-5.6c-0.1-0.1-0.3-0.3-0.4-0.5l0.1-0.4
			c0.1-0.1,0.2-0.2,0.3-0.2v-3.4C85.3,37.7,85.3,36.7,85,36.1z M83.6,54.6c0,0.2-0.1,0.3-0.3,0.4c-0.2,0-0.4-0.1-0.5-0.3
			c0-0.2,0.2-0.3,0.4-0.4C83.4,54.3,83.5,54.5,83.6,54.6z M83.6,36.1c-0.3-0.4-0.3-0.8-0.1-1.2c0.6,0.2,1.1,0.7,1.3,1.2
			C84.5,36.2,84,36.3,83.6,36.1z"/>
		<path class="st1" d="M214.9,35.4c0.1-0.1,0.2-0.1,0.3-0.2c0.2,0,0.3,0.2,0.4,0.3c0,0.2-0.1,0.3-0.3,0.4c-0.1,0-0.3-0.1-0.4-0.2V54
			c0,2,1.6,3.6,3.6,3.6c2,0,3.6-1.6,3.6-3.6v-4.8c-0.5,0.2-0.9,0.3-1.3,0.2c-0.6-0.8-0.3-1.7-0.3-2.6c0.2-0.2,0.3-0.6,0.6-0.5
			c0.4,0.2,0,0.6,0,0.9c0.1,0.3,0.3,0.8,0.7,0.7c0.1-0.1,0.2-0.1,0.4-0.2V30.5c-0.6,0.5-1.5,0.9-1.6,1.9c-0.5-0.1-1.1-0.4-1.3-0.9
			l0.6-0.4c0.2-0.2,0.5-0.5,0.3-0.9c-0.6,0-1.2-0.6-1.8-0.4c-0.3,0.6-0.4,1.3-0.5,1.9c0,0.6,0.5,0.7,1,0.7c0.4,0.6,0.1,1.5-0.3,2.1
			c-0.1-0.1-0.3-0.3-0.4-0.4c-0.5-0.6-1.3-0.3-1.8,0.1c-0.6-0.2-0.7-1-1.1-1.4c0-0.7,0.8-0.8,1.3-1c0.2-0.1,0.4-0.3,0.5-0.5
			c-0.1,0.2-0.4,0.3-0.7,0.3c-0.3-0.1-0.5-0.6-0.6-0.9c-0.2-0.4-0.2-0.7-0.7-0.6c-0.3,0-0.3,0.1-0.3,0.4c0,0.5,0,0.9,0,1.4
			c0,1.1,0,2.1,0,3.2C214.9,35.1,214.9,35.2,214.9,35.4z M221,33.5c0.4,0.1,0.7,0.3,0.9,0.7c0,0.2,0,0.5-0.3,0.5
			c-0.4,0-0.9-0.3-1.2-0.7C220.6,33.8,220.7,33.6,221,33.5z M217.6,38.8c0.2-0.1,0.3,0.2,0.5,0.3c0,0.2,0,0.4-0.3,0.5
			c-0.2,0-0.4-0.2-0.5-0.3C217.3,39.1,217.5,38.9,217.6,38.8z M217.4,41.7c0.3,0,0.4,0.2,0.6,0.5c-0.1,0.2-0.1,0.4-0.3,0.5
			c-0.2-0.1-0.4,0-0.5-0.3C216.9,42,217.1,41.8,217.4,41.7z"/>
		<path class="st1" d="M237.5,46.6C237.5,46.6,237.5,46.7,237.5,46.6c0,0.2,0.1,0.3,0,0.4c0.1-0.1,0.1-0.2,0.2-0.2
			c0.5,0.4,0.3,1,0.3,1.6l0.5,1.2c0.2,0.2,0.3,0.3,0.2,0.6l1.6,3.9c0.5,0.2,1,0.7,1.6,0.8c0.7,0.5-0.3,0.7-0.3,1.2
			c0.1,0.2,0.1,0.4,0.1,0.5c0.7,0.7,1.5,1.1,2.5,1.1c1.5,0,2.8-0.9,3.4-2.3l3.6-9c-0.1-0.1-0.2-0.3-0.2-0.4
			c-0.5-0.6,0.6-0.9,0.2-1.4c-0.1-0.3-0.4-0.4-0.7-0.4c-1.1,0-1,1.2-1.7,1.7c-0.2,1.2-1.6,1.4-2.4,2l-2.9-0.4l-0.5-0.5
			c-0.8-0.7-1.9-0.5-2.8-0.5l-1-1c-0.4-0.1-0.9,0.2-1.2,0.4c-0.2,0.2-0.2,0.2-0.3,0.4C237.8,46.4,237.7,46.4,237.5,46.6
			C237.6,46.6,237.5,46.6,237.5,46.6z M248.4,48.8c0.4,0,0.8,0.2,0.9,0.6c0.1,0.4-0.4,0.4-0.6,0.5c-0.3-0.1-0.8,0.2-1-0.3
			C247.7,49.2,248.1,48.9,248.4,48.8z M246.6,56.6c0,0,0,0.2-0.1,0.2c-0.2-0.1-0.5,0-0.5-0.2C246.1,56.3,246.4,56.4,246.6,56.6z"/>
	</g>
</g>
<g>
	<path class="st2" d="M195.3,13.3c-0.2,0.2-0.4,0.3-0.6,0.4c-0.3-0.1-0.4-0.3-0.5-0.5c-0.2,0-0.4,0-0.5,0c-9.7,0-17.6,7.8-17.8,17.5
		c0.1,0.3,0.3,0.6,0.5,0.9c0.2,0.3-0.1,0.7-0.5,0.7v6.4c0,2,1.6,3.6,3.6,3.6c2,0,3.6-1.6,3.6-3.6V31c0-1.5,0.3-3,0.9-4.3
		c-0.4,0-0.9,0.2-1.2,0c-0.1-0.5-0.3-1-0.2-1.4c0.2-0.6-0.6-0.5-0.6-1.1c0.8-0.4,1.7-0.5,2.5-1c0.1,0.6,0.4,1,0.8,1.4
		c1.2-1.6,2.9-2.8,4.8-3.4c-0.1-0.8-0.2-1.7-0.9-2.2c0.2-0.3,0.5-0.5,0.9-0.6c0.3,0,0.5,0.1,0.7,0.3c0.8,0.6,0.1,1.5,0.2,2.2
		c0.8-0.2,1.7-0.3,2.6-0.3c0.2,0,0.4,0,0.6,0c0,0,0,0,0.1,0c0,0,0,0,0.1,0c3.5,0.2,6.5,2.2,8.2,4.9c0.7-0.7,2.1-0.9,2.7-1.7l1-1.2
		c0.1-0.1,0.2-0.3,0.3-0.3c0.5-0.5,1.3-0.5,1.8-1C205.6,16.9,200.8,13.8,195.3,13.3z M181,23.7c-0.3-0.1-0.3-0.2-0.5-0.5
		c-0.1-0.5,0.5-0.3,0.6,0C181.1,23.4,181.3,23.7,181,23.7z M182.4,34.4l0.2,0.3c0.1,0.2,0.1,0.5-0.1,0.7c-0.2,0.1-0.3-0.2-0.4-0.3
		C182.1,34.8,182,34.5,182.4,34.4z M182.5,18.5c-0.2,0.1-0.3-0.1-0.4-0.2c0.1-0.3,0.4-0.2,0.6-0.2C182.9,18.3,182.6,18.4,182.5,18.5
		z M186.2,15.7l-0.1,0.1c-0.2,0.2-0.3,0-0.3-0.1c0-0.1,0.1-0.2,0.2-0.2C186.1,15.4,186.3,15.5,186.2,15.7z M188.1,19.7l-0.1-0.2
		c-0.1-0.2,0.5-0.5,0.4-0.1C188.5,19.6,188.3,19.8,188.1,19.7z M199.6,18.8l0.1,0l0,0.2C199.6,18.9,199.6,18.8,199.6,18.8z
		 M203,18.6c-0.3-0.4,0.2-0.6,0.3-0.9l0.4,0.4C203.5,18.4,203.3,18.6,203,18.6z"/>
	<path class="st2" d="M21,18.7c-0.5-0.6,0.6-0.9,0.2-1.4c-0.1-0.3-0.4-0.4-0.7-0.4c-1.1,0-1,1.2-1.7,1.7c-0.2,1.2-1.6,1.4-2.4,2
		l-2.9-0.3l-0.5-0.5c-0.8-0.7-1.9-0.5-2.8-0.5l-1-1c-0.7-0.2-1.3,0.6-1.7,0.8c-0.2-0.2-0.2-0.4-0.2-0.6c-4.1,3.4-6.8,8.7-7.3,15.1
		c0.5-0.4,0.2-1.1,0.2-1.6l0.2-0.5C0.7,31,1.3,30.9,1.8,31c0.4,0.7-0.7,0.9-0.7,1.6c0.1,0,0.2,0.1,0.2,0.1c0.4-0.1,0.9-0.3,1.2,0.1
		c0.1,0.6,0.8,0.9,1.1,1.4c-0.5,0.3-1.2,0.5-1.2,1.2c-0.2,0.3-0.6,0.7-1,0.5c-0.3-0.5-0.9-0.6-1.4-0.7c0,0.3,0,0.5,0,0.8
		c0,5.8,1.7,10.7,4.5,14.4c0.1-0.1,0.2-0.1,0.3-0.2c0.1,0,0.3,0,0.3,0.2c0.2,0.2-0.1,0.3-0.3,0.4c3.5,4.3,8.6,6.8,14.8,6.8
		c5.8,0,11-2.3,14.6-6.6c1.3-1.5,1.1-3.8-0.4-5.1c-1.5-1.3-3.8-1.1-5.1,0.4c-2.2,2.6-5.3,4-9,4c-8.6,0-12.4-7.3-12.4-14.4
		c0-3.1,0.7-6.2,2.2-8.8c0,0,0-0.1,0-0.1c0,0,0,0,0.1,0c2-3.3,5.3-5.5,10.1-5.5c0.8,0,1.7,0.1,2.4,0.2c0-0.1,0-0.2,0.1-0.3
		C22.2,20.4,21.4,19.7,21,18.7z M4.3,29.4c-0.2,0-0.6-0.1-0.6-0.3c0.2-0.4,0.1-1.1,0.6-1.2c0.2-0.1,0.3,0,0.4,0.2
		C4.6,28.4,5,29.2,4.3,29.4z M26.1,51.1c0.4-0.4,0.2-1.3,0.9-1.5c0.3-0.1,0.7,0,0.9,0.2c0.2,0.3,0.5,0.7,0.3,1
		c-0.9,0.6-0.4,2-1.6,2.3c-0.8,0.3-0.9-0.7-1.4-1C25.1,51.6,25.7,51.4,26.1,51.1z M24.3,54.3c0.1,0.2-0.1,0.3-0.2,0.4
		c-0.2,0-0.4-0.2-0.4-0.5C23.9,54,24.2,54.1,24.3,54.3z M20,50.9c0.8,0,1.2,0.8,1.6,1.5c-0.1,0.4-0.3,0.8-0.5,1.1
		c-0.6,0.3-1.2-0.2-1.8-0.4c0-0.4-0.3-0.8-0.2-1.3C19.2,51.5,19.4,50.9,20,50.9z M5.8,34.3c-0.2,0-0.5,0.2-0.6-0.1
		c0.1-0.1,0.2-0.3,0.4-0.3c0.2-0.1,0.5-0.1,0.4,0.2L5.8,34.3z M6.6,27c-0.2,0-0.3-0.1-0.3-0.3c0-0.1,0.1-0.3,0.2-0.3
		c0.1,0,0.3,0.1,0.3,0.2C6.8,26.8,6.6,26.9,6.6,27z M7.4,24.1c-0.2,0-0.5-0.1-0.5-0.3c0-0.4,0.5-0.5,0.8-0.7
		c0.8-0.9-0.3-1.5-0.5-2.3c0-0.5,0.2-1,0.5-1.2c0.8,0.5,0,1.6,0.5,2.4c0.1,0.4,0.6,0.5,0.5,1C8.5,23.5,8.2,24.2,7.4,24.1z"/>
	<path class="st2" d="M37.1,40.4c0-0.5-0.2-1-0.7-1.2c0.1,0.7,0.2,1.3,0.3,2C36.9,41,37.1,40.8,37.1,40.4z"/>
	<path class="st2" d="M72.5,35.2c-0.7-0.1-1.1-0.9-1.8-1.1c-0.2,0.4,0,1-0.5,1.2c-0.7-0.5-1.4-0.3-2,0c0,0.2,0,0.4,0,0.7
		c0,2.6-0.5,5.1-1.5,7.4c0,0,0,0,0,0c0,0.2-0.2,0.4-0.3,0.6c-0.5,1.1-1.2,2-2,2.9c1.1,0.9,2.2-0.5,3.4-0.4c0.2,0,0.5,0,0.4,0.3
		c-0.7,0.3-0.7,1.3-1.2,1.7c-0.8-0.4-0.5,0.7-1,0.9c-1.3,1.3-1.5-1-2.5-1.2c-0.2-0.2-0.1-0.4,0-0.6c-0.7,0.6-1.5,1.1-2.3,1.6
		c0.2,0.6,0.7,0.9,1.1,1.3c0,0.5-0.5,0.8-0.7,1.2c-0.5,0.1-0.9,0.1-1.4-0.1c-0.5-0.4,0-1,0.2-1.5c0.1-0.2,0.1-0.5,0.1-0.7
		c-1.4,0.6-3,0.9-4.8,0.9c-8.6,0-12.4-7.3-12.4-14.4c0-0.6,0-1.2,0.1-1.9c-0.3-0.1-0.6-0.4-1-0.4c-0.7-0.3-0.9,1.3-1.6,0.4
		c-0.4-0.3,0.1-0.6,0.2-1c0.1-0.4,0-0.9-0.3-1.3c-1.4-0.3-2.4-1.3-3.8-1.3c-0.1-0.2-0.1-0.3-0.2-0.5c-0.4,1.5-0.6,3.2-0.6,4.8
		c0.2-0.1,0.5-0.1,0.7,0c1,0.8-0.4,1-0.2,1.8c0.1,0.4,0.3,0.8,0.8,0.9c0.6-0.1,1.7,0.1,1.9-0.8c0-0.3,0-0.6-0.1-0.9
		c0.5-0.6,0.9,0.3,1.4,0.1c0.7,0,0.7-0.7,1.1-1c0.2,0.1,0.3,0.3,0.4,0.5c0.9,1.5-1.4,1.1-1.5,2.2c-0.4,0.7-1.1,1.1-1.1,2.1
		c-0.4,0.1-1,0.5-1.3,0.3c0.3-0.5,0.8-0.8,0.6-1.4c-0.5-0.4-1.1-0.2-1.6,0c-0.3,0.2-0.5,0.7-0.3,1c0.3,0.3,0.7,0.5,1,0.6l-0.2,1.1
		l-0.9,0.6c0,0-0.1,0-0.1,0c0.8,3.5,2.3,6.6,4.3,9.1c0.1,0,0.2,0,0.3,0c0.2,0.2,0.3,0.4,0.3,0.7c3.5,3.7,8.3,5.9,14,5.9
		c9.1,0,16-5.5,18.5-14c-0.6,0.2-1.3,0.4-1.9,0.7c-0.5,0.3-0.7,0.9-1.4,0.9c-0.3-0.1-0.6,0.1-0.8-0.2c0.4-1.2,2.3-1.2,3.1-2.2l1-1.2
		c0.1-0.2,0.3-0.2,0.5-0.1c0,0.1,0,0.2,0,0.3c0.3-1.5,0.5-3.1,0.6-4.7c-0.6-0.2-1.3-0.2-1.8-0.5L72.5,35.2z M43.8,51.5
		c-0.2,0-0.5-0.1-0.6-0.4c0.2-0.7-0.2-1.3-0.4-1.9c0.2-1.2-0.9-2-1.5-2.8c0-0.4,0.5-0.7,0.9-0.8c0.3,0,0.7,0,0.9,0.3
		c0.7,0.9,0,1.7,0.1,2.6c0.6,0.6,0.8,1.5,1.3,2.3C44.6,51.1,44.2,51.5,43.8,51.5z M50.6,54.5c-0.2,0.1-0.3-0.2-0.4-0.3
		c0-0.3-0.1-0.6,0.3-0.7l0.2,0.3C50.7,54,50.8,54.3,50.6,54.5z M52.8,52c-0.2,0.1-0.5,0-0.6-0.2l0.2-0.7c0.2-0.1,0.7-0.6,0.9-0.1
		C53.3,51.3,53.2,51.8,52.8,52z M54.2,55.3c-0.3,0.1-0.4-0.2-0.6-0.3c0-0.2-0.2-0.5,0.2-0.5c0.4-0.1,0.5,0.3,0.7,0.5
		C54.5,55,54.4,55.2,54.2,55.3z M57.2,53.1c-0.7,0.7-1.6,0.2-2.4,0.2c-0.6-0.1-0.3-0.7-0.5-1.1c0.3-0.7,1.3-1.2,2.1-0.9
		C56.6,51.9,57.7,52.3,57.2,53.1z M68.3,50.2c-0.3,0.1-0.4-0.2-0.5-0.4c-0.1-0.3,0.2-0.3,0.4-0.4c0.3,0,0.3,0.3,0.4,0.5
		C68.6,50.1,68.4,50.1,68.3,50.2z M71,37.7c-0.3-0.4,0.2-0.6,0.3-0.9l0.4,0.4C71.5,37.5,71.3,37.7,71,37.7z"/>
	<path class="st2" d="M157.1,33c0.1-0.4,0.4-0.6,0.8-0.9l-0.3-0.1c-1,0.3-1.9-0.4-2.9,0c-0.7-0.2-1.5-0.6-2.1-0.2
		c0.5,0.2,0.8,0.9,1.1,1.4c-0.1,0.4-0.3,0.8-0.5,1.1c-0.6,0.3-1.2-0.2-1.8-0.4c0-0.4-0.3-0.8-0.2-1.3c0.2-0.4,0.4-0.9,1-1
		c-0.3-0.1-0.7-0.2-1-0.1c0.1,0.2,0.1,0.5,0.2,0.7c-1.4,0-3.4,0-5.7,0c-0.3,0.2-0.7,0.3-1,0.4c-0.7,0.3-0.9,0.1-1-0.4
		c-6.3,0-13.8,0-16.4,0c0.2-0.9,0.4-1.7,0.7-2.6c-1.5,0.5-3.1,1.8-4.6,1c-0.6,0.1-0.7,0.7-0.9,1.1c-0.6,0.8-1.8,0.8-2.6,1.1
		c-0.1,1-0.2,1.9-0.2,2.9c0,0.4,0,0.7,0,1c0.7,0.2,1.1,1,2,0.9c1,0,1.4-1.1,2.3-0.9c-0.7,0.7-0.5,1.7-1.2,2.4
		c0.5,0.9-0.8,1.4-0.5,2.2c-0.2,0.2-0.8,0.6-1.1,0.4c-0.1-0.3,0.1-0.6,0.3-0.8c0-0.5-0.4-0.9-0.8-1.2c-0.2-0.4,0-0.8,0.1-1.2
		c0-0.7-0.7-0.8-1.2-1c0,0,0,0-0.1,0c0.8,11.7,8.6,19.8,19.6,19.8c6.8,0,12.5-3.1,16.1-8.7c1.1-1.7,0.6-3.9-1.1-5
		c-1.7-1.1-3.9-0.6-5,1.1c-2.2,3.5-5.7,5.3-10,5.3c-7.1,0-11-5-12.1-10.8c4.5,0,28.1,0,28.1,0c2,0,3.6-1.6,3.6-3.6
		c0-0.7,0-1.3-0.1-2c0,0,0,0-0.1,0C157.7,34.2,157.6,33.3,157.1,33z M143.7,50c1-0.7,2.2-0.3,3.4-0.5c0.5,0.2,0.7,0.8,0.9,1.3
		c0.6,1.1-0.6,1.7-1.2,2.3c-0.4,0.2-0.8,0.7-1.3,0.5l-1.4-1.1C143.1,51.8,143.9,50.8,143.7,50z M142.9,56.2c0,0,0,0.1-0.1,0.1
		c-0.1-0.1-0.2-0.1-0.2-0.2C142.7,56,142.8,56.1,142.9,56.2z M133.9,56.1l0.1,0.2l-0.1,0L133.9,56.1L133.9,56.1z M129.9,52.5l0,0.2
		c-0.1,0-0.1-0.1-0.1-0.1C129.8,52.5,129.9,52.5,129.9,52.5z M126.2,39c-0.3,0.3-0.8,0.3-1.1,0.1c0.2-0.4,0.7-0.4,1.1-0.4
		C126.3,38.7,126.2,38.8,126.2,39z M127.7,35.9c-0.2,0-0.4-0.2-0.5-0.4c0.1-0.6,0.9-0.6,1.4-0.7C128.5,35.3,128.1,35.7,127.7,35.9z
		 M137.3,32.9c-0.2,0.1-0.1-0.2-0.2-0.2c0-0.3,0.4-0.2,0.6-0.3C137.9,32.7,137.5,32.7,137.3,32.9z M139.7,33.8l-0.4-0.2
		c-0.2-0.2-0.5-1,0.1-0.8C139.6,33.1,139.9,33.4,139.7,33.8z M141.4,33.8c-0.3,0-0.7,0.4-0.8-0.2c0-0.3,0.2-0.6,0.5-0.7
		c0.4,0.1,0.7,0,0.9,0.4L141.4,33.8z M156.1,35.5c-0.2,0-0.4-0.2-0.4-0.5c0.2-0.2,0.4-0.1,0.5,0.1C156.3,35.3,156.2,35.5,156.1,35.5
		z"/>
	<path class="st2" d="M272.6,52.5c0.1-1-1.3-0.2-1.1-1.2c0.1-0.3,0.1-0.9,0.4-1c0.6,0,0.8,0.7,1.2,1c1.3,0.6,2.6,0.5,3.8-0.2
		c0.9,0.4,1.7,0.2,2.5-0.1c0.2-0.1,0.4-0.4,0.6-0.6c-6.9-0.1-10.7-5.1-11.8-10.8c4.5,0,28.1,0,28.1,0c2,0,3.6-1.6,3.6-3.6
		c0-12.8-8.1-21.7-19.6-21.7c-11.6,0-19.6,8.9-19.6,21.7c0,5.4,1.4,10.1,4,13.7c0.1-0.1,0.2-0.1,0.3-0.2c0.6,0.2,1.3,0,1.5,0.8
		c0,0.1-0.1,0.4-0.3,0.4c-0.4-0.1-0.8-0.2-1.1-0.4c1.6,2.2,3.7,3.9,6.1,5.2c0.1-0.3,0.1-0.6,0.2-0.9
		C271.3,53.5,272.3,53.3,272.6,52.5z M286.5,34c-0.3,0.1-0.4-0.2-0.6-0.3c-0.1-0.3,0.3-0.4,0.5-0.5c0.2,0,0.4-0.1,0.4,0.2
		C287.1,33.7,286.8,33.9,286.5,34z M293.6,24.2c0.4,0.1,0.6,0.8,0.7,1.2l-0.3,0.1c-0.5,0-0.8-0.3-0.9-0.7
		C293,24.5,293.3,24.3,293.6,24.2z M280.4,21.5c7.1,0,11,5,12,10.8c-5.4,0-20.2,0-24.1,0C269.4,26.5,273.3,21.5,280.4,21.5z
		 M265.9,37.1l0.1,0.2l-0.1,0L265.9,37.1L265.9,37.1z M261.8,33.5c0-0.1,0.1-0.1,0.1-0.1l0,0.2C261.9,33.6,261.8,33.5,261.8,33.5z
		 M266.3,39.8c-0.2,0.3-0.5,0.6-0.9,0.4c-0.3-0.7-1.2-0.8-1.5-1.5c0-0.4,0.5-0.5,0.8-0.7c0.5-0.1,0.9,0.3,1.3,0.5
		C266.3,38.8,266.6,39.3,266.3,39.8z M270.2,52.5c-0.3,0.1-0.3-0.3-0.5-0.4c0.1-0.3-0.3-0.6,0.1-0.9c0.4-0.1,0.5,0.4,0.7,0.6
		C270.6,52.1,270.6,52.4,270.2,52.5z"/>
	<path class="st2" d="M109.3,27.7c1.7-0.6,3.5,0.2,5.2-0.5c-1.8-5.4-5.4-9.5-10-11.5c-0.1,0.1-0.3,0.2-0.5,0.2
		c-0.3,0.1-0.6-0.1-0.5-0.4c0,0,0-0.1,0.1-0.1c-2-0.7-4.1-1.1-6.4-1.1c-4.2,0-7.9,1.3-10.8,3.6c0,0,0,0,0,0c-0.1,0.1,0,0.4-0.3,0.4
		c-0.3,0.2-0.4-0.2-0.4-0.4c0,0,0.1-0.1,0.1-0.1V3.6c0-2-1.6-3.6-3.6-3.6c-2,0-3.6,1.6-3.6,3.6v18c0.1-0.3,0.4-0.4,0.6-0.3
		c0.2,0.2-0.1,0.5-0.3,0.6c-0.1,0-0.2,0.1-0.3,0v5.9c0.5-0.2,1-0.3,1.3,0c0.3,0.2,0.5,0.6,0.3,0.9c-0.4,0.5-1,0.6-1.7,0.7v1.4
		c0,0.1,0.1,0.1,0.1,0.2c0.5,0.7,1.5,0.2,1.9,1c0.5,0.4,1.2,0.2,1.8,0c1.3,0.7,2.5-0.5,3.8-0.1c0.8-4.2,3-7.9,6.6-9.5
		c0.1-0.1,0.1-0.2,0.2-0.4c0.2-0.3,0.6-0.4,0.9-0.2c0.1,0,0.1,0.1,0.2,0.2c0.9-0.3,2-0.4,3.1-0.4c4.7,0,7.9,2.6,9.6,6.3
		C107.7,27.6,108.5,27.5,109.3,27.7z M82.3,20.6c-0.2,0-0.5-0.2-0.5-0.4c-0.1-0.2,0-0.4,0.2-0.5c0.3,0,0.4,0.2,0.6,0.4
		C82.6,20.2,82.6,20.5,82.3,20.6z M84.9,20.9c-0.1,0.2-0.4,0.3-0.6,0.2c-0.4-0.3-0.4-1.2,0.3-0.8C84.8,20.5,84.9,20.7,84.9,20.9z
		 M87,23.6L85.7,23c0.2-0.5,0.5-0.9,0.6-1.5c0.4-0.8,1.2,0,1.8,0.1c0.5,0.2,0.3,0.8,0.5,1.2C88.5,23.8,87.5,23.2,87,23.6z
		 M89.1,19.6c-0.1,0.1-0.3,0.2-0.4,0c-0.1-0.2,0.1-0.3,0.2-0.3C89.1,19.2,89.2,19.5,89.1,19.6z M90.4,17.1c-0.1-0.1-0.1-0.3,0.1-0.3
		c0.2-0.1,0.4,0.1,0.4,0.2C90.8,17.2,90.6,17.2,90.4,17.1z M91.7,21.5c-0.1,0.2-0.4,0.1-0.4-0.1c-0.1-0.2,0-0.4,0.2-0.4
		C91.6,21,91.8,21.3,91.7,21.5z M94.5,15.5c-0.1-0.1-0.3-0.1-0.3-0.2c0-0.3,0.5-0.8,0.6-0.2C94.9,15.3,94.7,15.4,94.5,15.5z
		 M97.6,17.6c-0.4,0.6-1.2,0.7-1.8,0.8c-0.3-0.1-0.6-0.4-0.6-0.8c0-0.6,0.3-1.3,1.1-1.2C96.9,16.6,97.9,16.7,97.6,17.6z"/>
	<path class="st2" d="M112.3,38.6c-1.3,0.8-1.3-0.9-2-1.4c-0.2-0.3-0.6-0.3-0.8-0.7c0.4-1.1-0.7-1.9-1-2.8c0.1,0.7,0.1,1.5,0.1,2.2
		V54c0,2,1.6,3.6,3.6,3.6c2,0,3.6-1.6,3.6-3.6v-9.7c0,0,0-0.1,0-0.1v-3c-0.1,0-0.1,0-0.2,0c-0.2-0.2-0.2-0.5-0.2-0.7
		c0-0.4,0.2-0.7,0.4-0.9v-1.3c-0.4,0.1-0.8,0.3-1.2,0.4C113.9,38.3,113.1,38.2,112.3,38.6z M113.1,40.2c-0.2,0-0.5,0.2-0.6-0.1
		c0.1-0.3,0.3-0.4,0.5-0.5c0.2,0,0.4,0,0.5,0.2C113.5,39.9,113.3,40,113.1,40.2z"/>
	<path class="st2" d="M217.7,29c0.8-0.2,1.2-0.8,1.8-1.3c0.9,0.1,1.8,0.1,2.6,0.8V17.9c0-2-1.6-3.6-3.6-3.6c-1.2,0-2.3,0.6-2.9,1.5
		c0.6,0.2,1.1,0.7,1.3,1.2c-0.4,0.2-0.8,0.3-1.2,0c-0.2-0.3-0.2-0.7-0.1-1.1c-0.4,0.6-0.6,1.2-0.6,2c0,0.4,0,0.8,0,1.2
		c0,2,0,4,0,6.1c0,1,0,2,0,3c0,0.4,0,0.7,0,1.1c0,0.8,0.3,0.7,1,0.5c0.3-0.1,0.7-0.2,1,0.1c0.3,0.4,0.2,0.9,0.2,1.4
		C217.5,30.6,217.3,29.7,217.7,29z M221.6,17.6c0.1,0.1,0.2,0.1,0.2,0.3c-0.1,0-0.3,0.2-0.4,0.1C221.5,17.8,221.5,17.7,221.6,17.6z
		 M217.6,22.4c0.7-0.8,1.8-0.5,2.7-0.8c0.7,0,1,0.6,1.4,0.9c0,0.6-0.6,0.9-1.1,1.2c-1,0-2.5,0.3-3-0.9L217.6,22.4z"/>
	<path class="st2" d="M260.3,14.5c-1.9-0.7-4,0.2-4.7,2c0,0-0.2,0.6-0.6,1.6c0.2-0.1,0.5-0.2,0.8-0.2c-0.7,0.7-0.5,1.7-1.2,2.4
		c0.5,0.9-0.8,1.4-0.5,2.2c-0.2,0.2-0.8,0.6-1.1,0.4c0,0,0,0,0-0.1c-2.3,5.6-5.7,14.1-8.7,21.5c-1.6-3.9-3.3-8.1-4.9-12.1
		c0,0,0,0.1,0,0.1c-0.2,0.2-0.6,0.4-0.9,0.4c-0.3-0.2-0.6-0.5-0.6-0.9c-0.1-0.4,0.2-1.6,0.9-1c0,0.1,0.1,0.1,0.1,0.2
		c-3.2-7.9-5.8-14.5-5.8-14.5c-0.7-1.9-2.9-2.8-4.7-2c-1.9,0.7-2.8,2.9-2,4.7c0.1,0.3,0.3,0.7,0.4,1c0.5,1.2,0.9,2.3,1.4,3.5
		c0.7,1.7,1.4,3.4,2,5c0.8,1.9,1.5,3.8,2.3,5.7c0.7,1.8,1.5,3.6,2.2,5.5c0.6,1.4,1.2,2.9,1.7,4.3c0.2,0.5,0.4,1,0.6,1.4
		c0.1,0.2,0.1,0.3,0.2,0.5c0,0.1,0,0.1,0.1,0.2c0.1,0.3,0.3,0.1,0.3-0.1c0-0.1-0.1-0.1-0.1-0.2c0-0.1-0.2-0.5,0-0.6l0.6-0.4
		c0.6-0.6,0.9-1.9,1.9-1.7c0.4,0.6-0.6,0.8-0.6,1.4c-0.1,0.3,0.1,0.6,0.5,0.6c1.3-0.4,2.2,1.5,3.4,0.4c0.4-0.4-0.3-1.1,0.6-1.2
		c0.3,0,0.5,0.2,0.7,0.3c0.6,0.5-0.2,0.9-0.3,1.3c0.1,0.9,1.1,0.6,1.7,0.9c1.3,0,1.4-1.4,2.5-1.7c0.4-0.9,0.9-1.8,1.9-2
		c0.2-0.6,0.8-1,0.9-1.6c0.1-0.3,0.4-0.5,0.7-0.3c0.2,0.4,0.4,0.9,0.2,1.3c-0.1,0.4,0.2,0.4,0.5,0.4l0.5-1.2
		c-0.3-0.1-0.4-0.5-0.6-0.8c0-0.4,0.1-0.8,0.5-1.1c0.3,0.1,0.6,0,0.9,0.1l7.6-18.8c0-0.1-0.1-0.1-0.1-0.2c0.1-0.2,0.1-0.4,0.3-0.5
		l0.6-1.4C263,17.4,262.1,15.3,260.3,14.5z M233,31.7c-0.3,0-0.3,0.5-0.5,0.4l-0.1-0.2c0.3-0.6-0.5-1.5,0.5-1.6
		c0.3,0,0.6,0.2,0.7,0.5C233.7,31.3,233.3,31.5,233,31.7z M235.3,38.7c-0.2,0-0.3-0.2-0.4-0.4c-0.1-0.3,0.1-0.7,0.5-0.8l0.2,0.3
		C235.6,38.1,235.7,38.5,235.3,38.7z M235.7,36.6l-0.1-0.3c-0.2-0.3,0.2-0.9,0.5-0.6C236.1,36,235.9,36.4,235.7,36.6z M258.2,19.9
		c-0.3,0.3-0.8,0.3-1.1,0.1c0.2-0.4,0.7-0.4,1.1-0.4C258.3,19.6,258.2,19.7,258.2,19.9z M259.6,16.8c-0.2,0-0.4-0.2-0.5-0.4
		c0.1-0.6,0.9-0.6,1.4-0.7C260.5,16.2,260.1,16.6,259.6,16.8z"/>
</g>
<g>
	<path class="st3" d="M167.3,64.8c1,0,1.8,0.1,2.4,0.4c0.6,0.3,1.2,0.7,1.5,1.3c0.2,0.3,0.3,0.6,0.4,1c0,0.1,0,0.1,0.1,0.2
		c0,0.1,0,0.2,0,0.2c0,0.1-0.1,0.2-0.2,0.2c-0.1,0-0.3,0-0.4,0h-0.9c-0.1,0-0.2,0-0.3,0s-0.2,0-0.3-0.1c-0.1,0-0.2-0.1-0.2-0.2
		c0-0.1-0.1-0.2-0.1-0.3c-0.1-0.1-0.1-0.2-0.2-0.4c-0.1-0.1-0.2-0.2-0.3-0.3c-0.2-0.1-0.3-0.2-0.5-0.2c-0.1,0-0.1,0-0.2,0
		c-0.1,0-0.1,0-0.2,0h-0.2c-0.2,0-0.4,0-0.6,0.1c-0.3,0.1-0.6,0.3-0.8,0.5c-0.2,0.2-0.4,0.5-0.5,0.8c-0.1,0.1-0.1,0.3-0.1,0.4
		c0,0.1-0.1,0.3-0.1,0.5c0,0,0,0.1,0,0.1c0,0,0,0.1,0,0.1c0,0.1,0,0.3,0,0.5c0,0.2,0,0.4,0,0.5c0,0.1,0,0.2,0,0.2c0,0.1,0,0.2,0,0.2
		c0,0.1,0,0.2,0,0.2c0.1,0.3,0.2,0.5,0.3,0.7c0.1,0.2,0.3,0.4,0.5,0.6c0,0,0.1,0.1,0.2,0.1c0.1,0.1,0.3,0.1,0.4,0.2
		c0.1,0,0.3,0,0.5,0.1c0,0,0.1,0,0.1,0c0,0,0.1,0,0.1,0h0.2c0.1,0,0.2,0,0.2-0.1c0.1,0,0.1,0,0.2-0.1c0.4-0.2,0.6-0.4,0.8-0.7
		c0-0.1,0.1-0.1,0.1-0.2c0-0.1,0.1-0.1,0.1-0.2c0-0.1,0.1-0.2,0.1-0.3c0-0.1,0.1-0.2,0.2-0.2c0.1,0,0.3-0.1,0.5-0.1
		c0.2,0,0.4,0,0.6,0c0.1,0,0.2,0,0.3,0c0.1,0,0.2,0,0.2,0h0.1c0,0,0.1,0,0.1,0c0,0,0.1,0,0.1,0c0.1,0,0.1,0.1,0.1,0.2
		c0,0.1,0,0.2,0,0.3c-0.1,0.4-0.2,0.7-0.4,1c-0.5,0.9-1.3,1.5-2.3,1.9c-0.1,0-0.2,0.1-0.4,0.1c-0.1,0-0.3,0-0.4,0.1
		c-0.1,0-0.1,0-0.2,0c-0.1,0-0.1,0-0.2,0h-0.2c-0.1,0-0.1,0-0.3,0c-0.1,0-0.2,0-0.3,0c-0.1,0-0.2,0-0.3,0c-0.1,0-0.2,0-0.2,0
		c-0.1,0-0.1,0-0.2,0c-0.1,0-0.1,0-0.2,0c-0.1,0-0.3-0.1-0.4-0.1c-0.1,0-0.2-0.1-0.3-0.1c-0.6-0.2-1-0.5-1.4-0.9
		c-0.4-0.4-0.7-0.8-0.9-1.4c-0.1-0.1-0.1-0.2-0.1-0.3c0-0.1-0.1-0.3-0.1-0.4c0,0,0-0.1,0-0.1c0,0,0-0.1,0-0.2c0-0.1,0-0.2,0-0.3
		c0-0.1,0-0.2,0-0.3v-0.3c0-0.1,0-0.1,0-0.2c0-0.1,0-0.1,0-0.2c0-0.1,0-0.1,0-0.2c0,0,0-0.1,0-0.1c0-0.1,0-0.2,0-0.2
		c0-0.1,0-0.1,0-0.2c0.1-0.2,0.1-0.4,0.1-0.6c0-0.2,0.1-0.4,0.2-0.6c0.3-0.6,0.6-1.1,1-1.5c0.4-0.4,0.9-0.7,1.5-1
		c0.2-0.1,0.3-0.1,0.5-0.2c0.2,0,0.4-0.1,0.5-0.1c0.1,0,0.2,0,0.3,0C167.2,64.8,167.3,64.8,167.3,64.8z"/>
	<path class="st3" d="M177.7,64.8c0.1,0,0.2,0,0.3,0c0.1,0,0.2,0.1,0.2,0.2c0.1,0.1,0.1,0.3,0.1,0.5c0,0.2,0,0.4,0,0.6
		c0,0.1,0,0.3,0,0.4c0,0.2,0,0.3-0.1,0.4c0,0.1-0.1,0.1-0.2,0.2c-0.1,0-0.2,0-0.3,0c-0.1,0-0.2,0-0.4,0c-0.1,0-0.2,0-0.3,0
		c-0.1,0-0.2,0-0.2,0c-0.1,0-0.2,0-0.2,0c-0.2,0.1-0.4,0.1-0.6,0.3c-0.2,0.1-0.3,0.2-0.4,0.4c-0.1,0.1-0.1,0.2-0.2,0.3
		c-0.1,0.1-0.1,0.2-0.2,0.3c0,0.1-0.1,0.2-0.1,0.3c0,0.1-0.1,0.2-0.1,0.3c0,0.1,0,0.2,0,0.3c0,0.1,0,0.2,0,0.3c0,0,0,0.1,0,0.1
		c0,0,0,0.1,0,0.1v0.3c0,0.1,0,0.2,0,0.3c0,0.1,0,0.2,0,0.3v1.1v1.5c0,0.2,0,0.3,0,0.4c0,0.1,0,0.2-0.1,0.3c0,0-0.1,0.1-0.1,0.1
		c-0.1,0-0.1,0-0.2,0h-0.1c-0.1,0-0.1,0-0.2,0c-0.1,0-0.1,0-0.2,0h-0.8c-0.1,0-0.1,0-0.2,0c-0.1,0-0.2,0-0.2,0c-0.1,0-0.1,0-0.2-0.1
		c-0.1,0-0.1-0.1-0.1-0.1c0-0.1-0.1-0.1-0.1-0.3c0-0.1,0-0.2,0-0.3v-1.2v-5v-1.3c0-0.1,0-0.2,0-0.3c0-0.1,0-0.2,0.1-0.3
		c0.1-0.1,0.1-0.2,0.3-0.2c0.1,0,0.3,0,0.4,0h0.9c0.1,0,0.3,0,0.4,0c0.1,0,0.2,0.1,0.2,0.2c0,0.1,0.1,0.1,0.1,0.2c0,0.1,0,0.2,0,0.3
		c0,0.1,0,0.2,0.1,0.3c0,0.1,0.1,0.1,0.2,0.1c0,0,0,0,0.1,0c0,0,0,0,0.1,0c0.1-0.1,0.1-0.1,0.2-0.2c0.1-0.1,0.1-0.1,0.2-0.2
		c0,0,0.1-0.1,0.1-0.1c0,0,0.1-0.1,0.1-0.1c0.1-0.1,0.2-0.1,0.3-0.2c0.1-0.1,0.2-0.1,0.3-0.2c0.1,0,0.2-0.1,0.4-0.1
		c0.1,0,0.2-0.1,0.4-0.1c0,0,0.1,0,0.2,0C177.6,64.9,177.7,64.9,177.7,64.8z"/>
	<path class="st3" d="M187.3,69.5c0,0.1,0,0.2,0,0.3c0,0.1-0.1,0.2-0.1,0.2c-0.1,0-0.1,0.1-0.3,0.1c-0.1,0-0.2,0-0.4,0
		c-0.1,0-0.3,0-0.4,0c-0.1,0-0.3,0-0.4,0h-4.3c-0.1,0-0.2,0-0.2,0c-0.1,0-0.1,0-0.2,0c-0.1,0-0.2,0.1-0.2,0.1c0,0,0,0.1-0.1,0.1
		c0,0.1,0,0.1,0,0.2c0,0.1,0,0.1,0,0.2c0,0.1,0,0.1,0,0.2c0.1,0.3,0.2,0.5,0.3,0.7c0.1,0.2,0.3,0.3,0.6,0.5c0.1,0.1,0.2,0.1,0.3,0.1
		c0.1,0,0.2,0,0.3,0.1c0.1,0,0.2,0,0.4,0.1c0.2,0,0.3,0,0.4,0h0.2c0.1,0,0.2,0,0.3-0.1c0.1,0,0.2-0.1,0.3-0.1
		c0.1-0.1,0.3-0.1,0.4-0.2c0.1-0.1,0.3-0.2,0.3-0.3c0.1-0.1,0.1-0.2,0.2-0.2c0.1-0.1,0.1-0.1,0.2-0.2c0.1-0.1,0.3-0.1,0.5-0.1
		c0.2,0,0.4,0,0.5,0c0.1,0,0.1,0,0.2,0c0.1,0,0.1,0,0.2,0h0.2c0.1,0,0.2,0.1,0.2,0.1c0,0,0.1,0.1,0.1,0.2c0,0.1,0,0.2,0,0.2
		c-0.1,0.2-0.1,0.3-0.2,0.4c-0.1,0.1-0.2,0.3-0.2,0.4c-0.3,0.4-0.6,0.7-0.9,0.9c-0.3,0.2-0.7,0.4-1.2,0.6c-0.1,0-0.3,0.1-0.4,0.1
		c-0.1,0-0.3,0-0.4,0.1c0,0-0.1,0-0.1,0c-0.1,0-0.1,0-0.2,0h-0.2c-0.1,0-0.1,0-0.2,0c-0.1,0-0.1,0-0.2,0c-0.1,0-0.2,0-0.2,0
		c-0.1,0-0.1,0-0.2,0c-0.1,0-0.1,0-0.2,0c-0.1,0-0.1,0-0.2,0c-0.1,0-0.3,0-0.4-0.1c-0.1,0-0.2-0.1-0.4-0.1c-0.1,0-0.3-0.1-0.4-0.1
		c-0.1,0-0.2-0.1-0.3-0.1c-0.4-0.2-0.7-0.5-1-0.8c-0.3-0.3-0.5-0.7-0.7-1.1c-0.1-0.1-0.1-0.3-0.1-0.4c0-0.1-0.1-0.3-0.1-0.4
		c0,0,0-0.1,0-0.1c0,0,0-0.1,0-0.1c0-0.1-0.1-0.3-0.1-0.5c0-0.2,0-0.3,0-0.5c0-0.1,0-0.1,0-0.2c0-0.1,0-0.1,0-0.2v-0.2l0.1-0.4
		c0-0.2,0.1-0.4,0.1-0.6c0-0.2,0.1-0.4,0.2-0.5c0.5-1.2,1.4-2.1,2.6-2.6c0.2-0.1,0.3-0.1,0.5-0.2c0.2,0,0.4-0.1,0.5-0.1
		c0.1,0,0.2,0,0.3,0c0.1,0,0.2,0,0.3,0c0.6,0,1.1,0.1,1.5,0.2c0.4,0.1,0.8,0.3,1.2,0.6c0.1,0.1,0.2,0.1,0.3,0.2
		c0.1,0.1,0.2,0.2,0.3,0.3c0,0.1,0.1,0.1,0.1,0.1c0.1,0.1,0.2,0.3,0.3,0.4c0.1,0.1,0.2,0.3,0.3,0.4c0.1,0.1,0.1,0.2,0.1,0.3
		c0,0.1,0.1,0.2,0.1,0.4c0.1,0.2,0.1,0.3,0.1,0.5c0,0.2,0.1,0.3,0.1,0.5c0,0.1,0,0.2,0,0.3c0,0.1,0,0.2,0,0.3V69.5z M184.6,68.5
		c0.1-0.1,0.1-0.3,0-0.4c-0.1-0.2-0.1-0.3-0.2-0.4c-0.2-0.3-0.4-0.6-0.7-0.7c-0.3-0.2-0.6-0.3-1.1-0.3c0,0-0.1,0-0.1,0
		c0,0-0.1,0-0.1,0c-0.1,0-0.1,0-0.2,0c-0.1,0-0.1,0-0.2,0c-0.5,0.2-0.9,0.5-1.1,1c0,0,0,0.1-0.1,0.2c0,0.1,0,0.2-0.1,0.2
		c0,0.1,0,0.2,0,0.2c0,0.1,0.1,0.1,0.1,0.2c0.1,0.1,0.2,0.1,0.4,0.1c0.2,0,0.3,0,0.5,0h2c0.2,0,0.3,0,0.5,0
		C184.4,68.7,184.6,68.6,184.6,68.5z"/>
	<path class="st3" d="M196.3,73.5c0,0.1,0,0.3,0,0.4c0,0.1-0.1,0.2-0.2,0.3c-0.1,0-0.2,0.1-0.2,0.1c-0.1,0-0.2,0-0.3,0h-1
		c-0.1,0-0.2,0-0.3,0c-0.1,0-0.2,0-0.2-0.1c-0.1,0-0.1-0.1-0.2-0.2c0-0.1-0.1-0.2-0.2-0.2c0,0-0.1,0-0.1-0.1c0,0-0.1,0-0.1,0
		c-0.1,0-0.1,0.1-0.2,0.1c-0.1,0-0.1,0.1-0.2,0.1c-0.1,0-0.1,0.1-0.2,0.1c-0.1,0-0.1,0.1-0.2,0.1c-0.2,0.1-0.3,0.1-0.5,0.2
		c-0.2,0-0.3,0.1-0.5,0.1c-0.1,0-0.2,0-0.2,0c-0.1,0-0.2,0-0.2,0c0,0-0.1,0-0.1,0c0,0-0.1,0-0.1,0h-0.2c-0.1,0-0.2,0-0.4,0h-0.2
		c-0.1,0-0.2,0-0.2,0c-0.1,0-0.2,0-0.2,0c-0.1,0-0.2,0-0.3-0.1c-0.1,0-0.2-0.1-0.3-0.1c-0.3-0.1-0.6-0.3-0.9-0.5
		c-0.2-0.2-0.4-0.5-0.6-0.8c0-0.1-0.1-0.2-0.1-0.3c0-0.1-0.1-0.2-0.1-0.3c0-0.1,0-0.1,0-0.2c0-0.1,0-0.1,0-0.2c0,0,0-0.1,0-0.2
		c0-0.1,0-0.2,0-0.2c0-0.1,0-0.2,0-0.3c0-0.1,0.1-0.3,0.1-0.4c0-0.1,0.1-0.3,0.1-0.4c0.2-0.3,0.4-0.6,0.7-0.8c0.3-0.2,0.6-0.3,1-0.5
		c0.2-0.1,0.3-0.1,0.5-0.1c0.2,0,0.3-0.1,0.5-0.1c0.1,0,0.2,0,0.3,0c0.1,0,0.2,0,0.3,0c0.1,0,0.2,0,0.2,0c0.1,0,0.2,0,0.3,0
		c0.1,0,0.2,0,0.2,0c0.1,0,0.2,0,0.3,0c0.2-0.1,0.5-0.1,0.7-0.1c0.2,0,0.4-0.1,0.6-0.3c0.1-0.1,0.2-0.2,0.2-0.4c0,0,0-0.1,0-0.1
		c0,0,0,0,0-0.1c0,0,0-0.1,0-0.1c0,0,0-0.1,0-0.1c0,0,0-0.1,0-0.1c0,0,0-0.1,0-0.1c-0.1-0.4-0.4-0.6-0.7-0.7c-0.1,0-0.2-0.1-0.4-0.1
		c-0.1,0-0.3,0-0.5,0c-0.2,0-0.3,0-0.4,0c-0.1,0-0.3,0.1-0.4,0.1c-0.1,0-0.1,0.1-0.2,0.1c-0.1,0-0.1,0.1-0.2,0.1
		c-0.1,0-0.1,0.1-0.2,0.2c-0.1,0.1-0.1,0.2-0.1,0.2c-0.1,0.1-0.1,0.2-0.1,0.3c0,0.1-0.1,0.2-0.3,0.2c-0.1,0-0.2,0-0.3,0
		c-0.1,0-0.2,0-0.3,0h-0.7c-0.1,0-0.1,0-0.2,0c-0.1,0-0.1,0-0.2,0h-0.2c0,0-0.1,0-0.1,0c0,0-0.1,0-0.1,0c-0.1,0-0.2-0.1-0.2-0.2
		c0-0.1,0-0.1,0-0.2c0-0.1,0-0.1,0-0.2c0-0.1,0.1-0.3,0.1-0.4c0-0.1,0.1-0.2,0.1-0.3c0-0.1,0.1-0.1,0.1-0.2c0-0.1,0.1-0.1,0.1-0.2
		c0.1-0.1,0.2-0.3,0.4-0.4c0,0,0.1,0,0.1-0.1c0.1,0,0.1-0.1,0.2-0.1c0,0,0.1-0.1,0.2-0.1c0.2-0.1,0.4-0.2,0.6-0.3
		c0.2-0.1,0.5-0.1,0.7-0.2c0.1,0,0.3-0.1,0.4-0.1c0.2,0,0.3,0,0.5-0.1c0,0,0.1,0,0.2,0c0.1,0,0.2,0,0.2,0c0.5,0,0.9,0,1.4,0.1
		c0.4,0,0.8,0.1,1.2,0.3c0.4,0.1,0.7,0.3,0.9,0.5c0.3,0.2,0.5,0.5,0.6,0.8c0.1,0.2,0.1,0.4,0.1,0.7c0,0.3,0,0.5,0,0.8V72
		c0,0.2,0,0.5,0,0.7c0,0.2,0,0.4,0.1,0.6c0,0,0,0.1,0,0.1C196.2,73.4,196.2,73.5,196.3,73.5z M193.7,70.8c0-0.1,0-0.1,0-0.2
		c0-0.1,0-0.1,0-0.2c0-0.1,0-0.1,0-0.2c0-0.1,0-0.1-0.1-0.1c-0.1,0-0.1-0.1-0.3-0.1c0,0-0.1,0-0.1,0c0,0-0.1,0-0.1,0
		c-0.1,0-0.2,0-0.3,0.1c-0.1,0-0.2,0-0.3,0.1c0,0-0.1,0-0.2,0c-0.2,0-0.3,0.1-0.5,0.1c-0.2,0-0.3,0-0.4,0.1c-0.1,0-0.2,0-0.3,0.1
		c-0.1,0-0.2,0-0.2,0.1c-0.2,0.1-0.5,0.3-0.6,0.5c-0.2,0.2-0.2,0.5-0.2,0.9c0,0.2,0.1,0.4,0.2,0.5c0.1,0.1,0.2,0.2,0.4,0.3
		c0.2,0.1,0.3,0.1,0.5,0.2c0.2,0,0.4,0,0.6,0c0.2,0,0.4-0.1,0.6-0.1c0.3-0.1,0.5-0.2,0.7-0.5c0.2-0.2,0.3-0.5,0.4-0.8
		c0-0.1,0-0.2,0-0.3c0-0.1,0-0.2,0-0.3V70.8z"/>
	<path class="st3" d="M198.5,62.4h1.2c0.2,0,0.3,0,0.5,0c0.1,0,0.2,0.1,0.3,0.2c0,0.1,0,0.1,0,0.2c0,0.1,0,0.2,0,0.2v0.8
		c0,0.1,0,0.1,0,0.2c0,0.1,0,0.1,0,0.2v0.2c0,0.1,0,0.2,0,0.3c0,0.1,0,0.1,0.1,0.2c0.1,0.1,0.2,0.2,0.4,0.2c0.2,0,0.4,0,0.6,0
		c0.1,0,0.1,0,0.2,0c0.1,0,0.1,0,0.2,0c0.1,0.1,0.2,0.2,0.2,0.3c0,0.2,0,0.3,0,0.5c0,0.1,0,0.2,0,0.2c0,0.1,0,0.2,0,0.2
		c-0.1,0.2-0.2,0.3-0.4,0.3c-0.2,0-0.4,0-0.6,0c0,0-0.1,0-0.1,0c-0.1,0-0.1,0-0.1,0c0,0-0.1,0-0.1,0c0,0-0.1,0-0.1,0
		c-0.1,0-0.2,0.1-0.2,0.2c0,0.1-0.1,0.2-0.1,0.3c0,0.1,0,0.1,0,0.2c0,0.1,0,0.1,0,0.2v1.1v2.1c0,0.3,0,0.6,0,0.8
		c0,0.2,0.1,0.4,0.2,0.6c0.1,0.1,0.1,0.1,0.2,0.1c0.1,0,0.2,0.1,0.3,0.1c0,0,0.1,0,0.1,0c0,0,0.1,0,0.1,0h0.2c0.1,0,0.2,0,0.3,0
		c0.1,0,0.2,0.1,0.2,0.1c0,0.1,0.1,0.2,0.1,0.3c0,0.1,0,0.2,0,0.3c0,0.2,0,0.5,0,0.7c0,0.2-0.1,0.3-0.3,0.4c-0.1,0-0.1,0-0.2,0
		c0,0-0.1,0-0.2,0h-0.2c0,0-0.1,0-0.1,0c0,0-0.1,0-0.1,0c-0.1,0-0.1,0-0.2,0c-0.1,0-0.1,0-0.2,0c-0.1,0-0.1,0-0.2,0
		c-0.1,0-0.1,0-0.2,0h-0.2c-0.1,0-0.1,0-0.2,0c-0.1,0-0.1,0-0.2,0c-0.1,0-0.2,0-0.2,0c-0.1,0-0.1,0-0.2,0c-0.1,0-0.3-0.1-0.4-0.1
		c-0.1,0-0.2-0.1-0.3-0.2c0,0-0.1,0-0.1-0.1c0,0-0.1-0.1-0.1-0.1c0,0-0.1,0-0.1-0.1c0,0-0.1-0.1-0.1-0.1c-0.2-0.2-0.3-0.5-0.4-0.7
		c0,0,0-0.1,0-0.1c0,0,0-0.1,0-0.2c0,0,0-0.1,0-0.1c0,0,0-0.1,0-0.1v-0.2c0,0,0-0.1,0-0.2c0-0.1,0-0.1,0-0.2v-0.7v-2.6v-0.9
		c0-0.1,0-0.2,0-0.2c0-0.1,0-0.2,0-0.2c0-0.2-0.1-0.3-0.2-0.3c-0.1-0.1-0.3-0.1-0.5-0.1c-0.2,0-0.4,0-0.5-0.1
		c-0.1,0-0.2-0.1-0.2-0.2c0-0.1,0-0.2-0.1-0.3v-0.4c0-0.2,0-0.4,0-0.5c0-0.1,0.1-0.2,0.3-0.3c0,0,0.1,0,0.1,0c0,0,0.1,0,0.2,0
		c0.2,0,0.3,0,0.5,0c0.2,0,0.3-0.1,0.3-0.2c0-0.1,0.1-0.2,0.1-0.3c0-0.1,0-0.2,0-0.3v-1.1c0-0.1,0-0.2,0-0.3c0-0.1,0-0.2,0-0.3
		c0.1-0.1,0.1-0.2,0.3-0.2C198.4,62.4,198.4,62.4,198.5,62.4C198.5,62.4,198.5,62.4,198.5,62.4z"/>
	<path class="st3" d="M205.5,61.7c0.1,0.1,0.1,0.2,0.1,0.4c0,0.2,0,0.4,0,0.5c0,0.2,0,0.3,0,0.5c0,0.2,0,0.3-0.1,0.3
		c-0.1,0.1-0.2,0.1-0.3,0.1c-0.1,0-0.2,0-0.4,0h-1c-0.1,0-0.2,0-0.3,0c-0.1,0-0.2,0-0.3-0.1c0,0-0.1-0.1-0.1-0.2c0-0.1,0-0.2,0-0.3
		c0-0.1,0-0.3,0-0.4c0-0.1,0-0.2,0-0.3c0-0.1,0-0.2,0-0.3c0-0.1,0-0.1,0.1-0.2c0,0,0.1-0.1,0.1-0.1c0,0,0.1,0,0.1-0.1
		c0,0,0.1,0,0.1,0c0,0,0.1,0,0.1,0h1.3c0.1,0,0.2,0,0.3,0C205.4,61.6,205.5,61.7,205.5,61.7z M205.7,73.2c0,0.2,0,0.4,0,0.6
		c0,0.2-0.1,0.3-0.3,0.3c-0.1,0-0.1,0-0.2,0c-0.1,0-0.2,0-0.3,0h-1c-0.1,0-0.2,0-0.3,0c-0.1,0-0.2,0-0.2-0.1
		c-0.1-0.1-0.1-0.2-0.1-0.3c0-0.1,0-0.3,0-0.4v-7.5c0-0.1,0-0.2,0-0.4c0-0.1,0-0.2,0.1-0.3c0.1-0.1,0.2-0.1,0.3-0.2c0,0,0.1,0,0.1,0
		c0,0,0.1,0,0.1,0h0.9c0.1,0,0.2,0,0.2,0c0.1,0,0.2,0,0.2,0h0.1c0.1,0,0.1,0,0.2,0.1c0.1,0,0.1,0,0.1,0.1c0,0.1,0.1,0.1,0.1,0.2
		c0,0.1,0,0.2,0,0.3V73.2z"/>
	<path class="st3" d="M206.9,65.1h1.3c0.1,0,0.3,0,0.4,0c0.1,0,0.2,0,0.3,0.1c0.1,0.1,0.2,0.2,0.3,0.5c0.1,0.2,0.1,0.4,0.2,0.6
		c0.1,0.4,0.3,0.8,0.4,1.2c0.1,0.4,0.2,0.8,0.4,1.2c0.1,0.3,0.2,0.6,0.3,0.9c0.1,0.3,0.2,0.6,0.3,0.8c0,0.1,0.1,0.2,0.1,0.3
		c0,0.1,0.1,0.2,0.3,0.2c0,0,0,0,0.1,0c0,0,0,0,0.1,0c0-0.1,0.1-0.1,0.1-0.2c0-0.1,0-0.1,0.1-0.2c0.1-0.1,0.1-0.3,0.1-0.4
		c0-0.1,0.1-0.3,0.1-0.4c0.2-0.5,0.3-1,0.5-1.5c0.1-0.5,0.3-1,0.5-1.5c0.1-0.1,0.1-0.3,0.1-0.4c0-0.1,0.1-0.3,0.1-0.4
		c0-0.1,0.1-0.2,0.1-0.3c0-0.1,0.1-0.2,0.2-0.2c0,0,0.1-0.1,0.2-0.1c0.1,0,0.1,0,0.2,0c0.1,0,0.2,0,0.2,0h0.9c0.1,0,0.3,0,0.4,0
		c0.1,0,0.2,0,0.3,0.1c0.1,0.1,0.1,0.1,0.1,0.3c0,0.1,0,0.2-0.1,0.3c-0.1,0.2-0.1,0.3-0.2,0.5c-0.1,0.2-0.1,0.4-0.2,0.5
		c0,0.1-0.1,0.2-0.1,0.2c0,0.1,0,0.2-0.1,0.2c-0.1,0.1-0.1,0.3-0.1,0.4c0,0.1-0.1,0.3-0.1,0.4c0,0,0,0.1,0,0.1c0,0,0,0.1,0,0.1
		c-0.1,0.2-0.1,0.4-0.2,0.5c-0.1,0.2-0.1,0.4-0.2,0.5c-0.1,0.4-0.3,0.7-0.4,1.1c-0.1,0.4-0.2,0.7-0.4,1.1c-0.1,0.2-0.1,0.3-0.2,0.5
		c0,0.2-0.1,0.3-0.2,0.5c0,0.1,0,0.1-0.1,0.1c0,0,0,0.1-0.1,0.2c0,0.1-0.1,0.3-0.1,0.4c0,0.1-0.1,0.3-0.1,0.4
		c-0.1,0.1-0.1,0.3-0.2,0.4c0,0.1-0.1,0.2-0.3,0.2c-0.1,0-0.2,0-0.3,0c-0.1,0-0.2,0-0.3,0h-1.1c-0.1,0-0.3,0-0.4,0
		c-0.1,0-0.2,0-0.3-0.1c-0.1-0.1-0.1-0.1-0.2-0.2c0-0.1-0.1-0.2-0.1-0.3c-0.1-0.1-0.1-0.3-0.2-0.4c0-0.2-0.1-0.3-0.2-0.4
		c0,0,0-0.1,0-0.1c0,0,0-0.1,0-0.1c-0.1-0.1-0.1-0.3-0.2-0.4c0-0.2-0.1-0.3-0.2-0.5c0-0.1,0-0.1-0.1-0.2c0-0.1,0-0.1-0.1-0.2
		c0-0.1-0.1-0.2-0.1-0.3c0-0.1-0.1-0.2-0.1-0.3c0,0,0-0.1,0-0.1s0-0.1,0-0.1c0-0.1-0.1-0.2-0.1-0.3c0-0.1-0.1-0.2-0.1-0.3
		c-0.1-0.3-0.2-0.6-0.3-0.8c-0.1-0.3-0.2-0.6-0.3-0.9c-0.1-0.3-0.2-0.6-0.3-1c-0.1-0.3-0.2-0.6-0.3-1l-0.2-0.5c0,0,0-0.1,0-0.1
		c0-0.1,0-0.1,0-0.2c0-0.1,0.1-0.1,0.2-0.2C206.8,65.1,206.9,65.1,206.9,65.1z"/>
	<path class="st3" d="M224.1,69.5c0,0.1,0,0.2,0,0.3c0,0.1-0.1,0.2-0.1,0.2c-0.1,0-0.1,0.1-0.3,0.1c-0.1,0-0.2,0-0.4,0
		c-0.1,0-0.3,0-0.4,0c-0.1,0-0.3,0-0.4,0h-4.3c-0.1,0-0.2,0-0.2,0c-0.1,0-0.1,0-0.2,0c-0.1,0-0.2,0.1-0.2,0.1c0,0,0,0.1-0.1,0.1
		c0,0.1,0,0.1,0,0.2c0,0.1,0,0.1,0,0.2c0,0.1,0,0.1,0,0.2c0.1,0.3,0.2,0.5,0.3,0.7c0.1,0.2,0.3,0.3,0.6,0.5c0.1,0.1,0.2,0.1,0.3,0.1
		c0.1,0,0.2,0,0.3,0.1c0.1,0,0.2,0,0.4,0.1c0.2,0,0.3,0,0.4,0h0.2c0.1,0,0.2,0,0.3-0.1c0.1,0,0.2-0.1,0.3-0.1
		c0.1-0.1,0.2-0.1,0.4-0.2c0.1-0.1,0.3-0.2,0.3-0.3c0.1-0.1,0.1-0.2,0.2-0.2c0.1-0.1,0.1-0.1,0.2-0.2c0.1-0.1,0.3-0.1,0.4-0.1
		s0.4,0,0.5,0c0.1,0,0.1,0,0.2,0c0.1,0,0.1,0,0.2,0h0.2c0.1,0,0.2,0.1,0.2,0.1c0,0,0.1,0.1,0.1,0.2c0,0.1,0,0.2,0,0.2
		c-0.1,0.2-0.1,0.3-0.2,0.4c-0.1,0.1-0.2,0.3-0.2,0.4c-0.3,0.4-0.6,0.7-0.9,0.9c-0.3,0.2-0.7,0.4-1.2,0.6c-0.1,0-0.3,0.1-0.4,0.1
		c-0.1,0-0.3,0-0.4,0.1c0,0-0.1,0-0.2,0c-0.1,0-0.1,0-0.2,0h-0.2c-0.1,0-0.1,0-0.2,0c-0.1,0-0.1,0-0.2,0c-0.1,0-0.2,0-0.2,0
		s-0.1,0-0.2,0c-0.1,0-0.1,0-0.2,0c-0.1,0-0.1,0-0.2,0c-0.1,0-0.3,0-0.4-0.1c-0.1,0-0.2-0.1-0.4-0.1c-0.1,0-0.3-0.1-0.4-0.1
		c-0.1,0-0.2-0.1-0.3-0.1c-0.4-0.2-0.7-0.5-1-0.8c-0.3-0.3-0.5-0.7-0.7-1.1c-0.1-0.1-0.1-0.3-0.1-0.4c0-0.1-0.1-0.3-0.1-0.4
		c0,0,0-0.1,0-0.1c0,0,0-0.1,0-0.1c0-0.1-0.1-0.3-0.1-0.5c0-0.2,0-0.3,0-0.5c0-0.1,0-0.1,0-0.2c0-0.1,0-0.1,0-0.2v-0.2l0.1-0.4
		c0-0.2,0.1-0.4,0.1-0.6c0-0.2,0.1-0.4,0.2-0.5c0.5-1.2,1.4-2.1,2.6-2.6c0.2-0.1,0.3-0.1,0.5-0.2c0.2,0,0.3-0.1,0.5-0.1
		c0.1,0,0.2,0,0.3,0c0.1,0,0.2,0,0.3,0c0.6,0,1.1,0.1,1.5,0.2c0.4,0.1,0.8,0.3,1.2,0.6c0.1,0.1,0.2,0.1,0.3,0.2
		c0.1,0.1,0.2,0.2,0.3,0.3c0,0.1,0.1,0.1,0.1,0.1c0.1,0.1,0.2,0.3,0.3,0.4c0.1,0.1,0.2,0.3,0.3,0.4c0.1,0.1,0.1,0.2,0.1,0.3
		c0,0.1,0.1,0.2,0.1,0.4c0.1,0.2,0.1,0.3,0.1,0.5c0,0.2,0.1,0.3,0.1,0.5c0,0.1,0,0.2,0,0.3c0,0.1,0,0.2,0,0.3V69.5z M221.4,68.5
		c0.1-0.1,0.1-0.3,0-0.4c-0.1-0.2-0.1-0.3-0.2-0.4c-0.2-0.3-0.4-0.6-0.7-0.7c-0.3-0.2-0.6-0.3-1.1-0.3c0,0-0.1,0-0.1,0
		c0,0-0.1,0-0.1,0c-0.1,0-0.1,0-0.2,0c-0.1,0-0.1,0-0.2,0c-0.5,0.2-0.9,0.5-1.1,1c0,0,0,0.1-0.1,0.2c0,0.1,0,0.2-0.1,0.2
		c0,0.1,0,0.2,0,0.2c0,0.1,0.1,0.1,0.1,0.2c0.1,0.1,0.2,0.1,0.4,0.1c0.2,0,0.3,0,0.5,0h2c0.2,0,0.3,0,0.5,0
		C221.2,68.7,221.4,68.6,221.4,68.5z"/>
	<path class="st3" d="M236.5,73.5c0,0.2,0,0.3-0.1,0.5c-0.1,0.1-0.2,0.2-0.3,0.3c-0.1,0-0.1,0-0.2,0c-0.1,0-0.1,0-0.2,0
		c-0.3,0.1-0.5,0-0.8,0c-0.3-0.1-0.4-0.2-0.5-0.3c-0.1-0.1-0.1-0.2-0.2-0.3c0-0.1-0.1-0.2-0.2-0.3c0,0-0.1,0-0.1-0.1
		c0,0-0.1,0-0.1,0c-0.1,0-0.3,0.1-0.4,0.2c-0.1,0.1-0.2,0.2-0.3,0.2c-0.2,0.1-0.3,0.2-0.5,0.3c-0.2,0.1-0.4,0.1-0.6,0.2
		c-0.1,0-0.2,0.1-0.4,0.1c-0.1,0-0.3,0-0.4,0.1c-0.1,0-0.1,0-0.2,0c0,0-0.1,0-0.1,0c-0.1,0-0.3,0-0.4,0h-0.2c-0.1,0-0.1,0-0.2,0
		c-0.1,0-0.1,0-0.2,0c0,0-0.1,0-0.1,0c0,0-0.1,0-0.1,0c-0.1,0-0.2,0-0.3-0.1c-0.1,0-0.2,0-0.3-0.1c-0.4-0.2-0.6-0.3-0.9-0.5
		c-0.2-0.2-0.4-0.5-0.5-0.8c-0.1-0.3-0.2-0.6-0.2-0.9v-0.4c0-0.1,0-0.1,0-0.2c0-0.1,0-0.1,0-0.2c0-0.1,0.1-0.3,0.1-0.4
		c0-0.1,0.1-0.2,0.2-0.4c0.2-0.3,0.5-0.6,0.9-0.8c0.4-0.2,0.8-0.3,1.2-0.4c0.2,0,0.3-0.1,0.5-0.1c0.2,0,0.4-0.1,0.5-0.1
		c0.1,0,0.2,0,0.2,0c0.1,0,0.2,0,0.3,0c0.1,0,0.2,0,0.2,0c0.1,0,0.2,0,0.3,0c0.3-0.1,0.6-0.1,0.8-0.2c0.3-0.1,0.5-0.2,0.6-0.4
		c0.1-0.1,0.1-0.2,0.2-0.4c0-0.1,0-0.3,0-0.5c-0.1-0.3-0.2-0.5-0.3-0.7c-0.1-0.2-0.3-0.3-0.6-0.4c-0.1-0.1-0.3-0.1-0.5-0.1
		c-0.2,0-0.4,0-0.6,0c-0.2,0-0.4,0-0.6,0c-0.2,0-0.4,0.1-0.5,0.1c-0.2,0.1-0.4,0.2-0.6,0.3c-0.1,0.1-0.2,0.2-0.3,0.3
		c-0.1,0.1-0.1,0.2-0.2,0.4c0,0.1-0.1,0.2-0.1,0.3c0,0.1-0.1,0.2-0.2,0.2c0,0-0.1,0.1-0.2,0.1c-0.1,0-0.2,0-0.3,0
		c-0.1,0-0.2,0-0.3,0c-0.1,0-0.2,0-0.2-0.1c0,0-0.1-0.1-0.1-0.2c0-0.1,0-0.2,0-0.3c0-0.2,0.1-0.3,0.1-0.4c0-0.1,0.1-0.3,0.2-0.4
		c0.2-0.4,0.5-0.7,0.8-1c0.3-0.2,0.8-0.4,1.3-0.6c0.1,0,0.2,0,0.4-0.1c0.1,0,0.3,0,0.4-0.1c0,0,0.1,0,0.2,0c0.1,0,0.2,0,0.2,0
		c0.8,0,1.5,0.1,2.2,0.3c0.6,0.2,1,0.6,1.3,1.1c0.1,0.2,0.2,0.5,0.2,0.8c0,0.3,0,0.6,0,1V72c0,0.2,0,0.3,0,0.5c0,0.2,0,0.3,0.1,0.4
		c0.1,0.1,0.1,0.1,0.2,0.2c0.1,0,0.2,0.1,0.3,0.1c0.1,0,0.2,0.1,0.2,0.2c0,0,0,0.1,0,0.1C236.5,73.4,236.5,73.5,236.5,73.5z
		 M234,71.6c0.1-0.2,0.1-0.4,0.1-0.6c0-0.2,0-0.4,0-0.7c0-0.1,0-0.2,0-0.4s-0.1-0.2-0.1-0.2c0,0-0.1,0-0.2,0c0,0-0.1,0-0.1,0
		c-0.1,0-0.1,0-0.2,0c-0.1,0-0.2,0-0.3,0.1c-0.1,0-0.2,0-0.4,0.1c0,0-0.1,0-0.1,0c0,0-0.1,0-0.1,0c-0.2,0-0.4,0.1-0.6,0.1
		c-0.2,0-0.4,0-0.6,0.1c-0.1,0-0.2,0-0.3,0.1c-0.1,0-0.2,0-0.3,0.1c-0.2,0.1-0.4,0.1-0.5,0.2c-0.2,0.1-0.3,0.2-0.4,0.3
		c-0.1,0.1-0.2,0.3-0.3,0.5c-0.1,0.2-0.1,0.4-0.1,0.7c0,0.1,0,0.2,0.1,0.3c0,0.1,0.1,0.2,0.2,0.3c0.1,0.1,0.2,0.2,0.4,0.3
		c0.2,0.1,0.3,0.2,0.5,0.2c0.1,0,0.1,0,0.2,0s0.1,0,0.2,0c0.1,0,0.2,0,0.3,0c0.1,0,0.2,0,0.3,0c0.1,0,0.1,0,0.2,0c0.1,0,0.1,0,0.2,0
		c0.1,0,0.2,0,0.3-0.1c0.1,0,0.2,0,0.3-0.1c0.3-0.1,0.6-0.3,0.9-0.5C233.7,72.2,233.9,71.9,234,71.6z"/>
	<path class="st3" d="M241.4,64.9c0.7,0,1.3,0.1,1.8,0.3c0.4,0.2,0.8,0.6,1.1,1c0.1,0.1,0.1,0.2,0.2,0.4c0,0.1,0.1,0.3,0.1,0.4
		c0.1,0.2,0.1,0.5,0.1,0.7c0,0.3,0,0.5,0,0.8v1.9v2.8c0,0.2,0,0.4,0,0.6c0,0.2-0.1,0.3-0.2,0.4c-0.1,0-0.1,0-0.2,0
		c-0.1,0-0.1,0-0.2,0c-0.2,0-0.3,0-0.4,0c-0.1,0-0.2-0.1-0.3-0.1c-0.1-0.1-0.1-0.2-0.1-0.3c0-0.1,0-0.3,0-0.4v-1.5v-2.9
		c0-0.3,0-0.6,0-0.9c0-0.3-0.1-0.6-0.2-0.8c-0.1-0.2-0.2-0.4-0.4-0.6c-0.2-0.1-0.4-0.3-0.7-0.3c-0.1,0-0.1,0-0.2,0
		c-0.1,0-0.2,0-0.2,0c-0.1,0-0.2,0-0.3,0c-0.1,0-0.2,0-0.3,0c0,0-0.1,0-0.1,0c0,0-0.1,0-0.1,0c-0.2,0-0.3,0.1-0.4,0.1
		c-0.1,0-0.3,0.1-0.4,0.2c0,0-0.1,0-0.1,0.1c0,0-0.1,0-0.1,0.1c-0.4,0.3-0.7,0.7-0.9,1.3c0,0.1-0.1,0.2-0.1,0.3c0,0.1,0,0.2-0.1,0.3
		c0,0.1,0,0.1,0,0.2c0,0.1,0,0.1,0,0.1v0.4c0,0,0,0.1,0,0.1c0,0,0,0.1,0,0.2v0.5v1.7v1.6c0,0.1,0,0.3,0,0.4c0,0.1,0,0.2-0.1,0.3
		c-0.1,0.1-0.2,0.1-0.3,0.1c-0.1,0-0.3,0-0.5,0c-0.1,0-0.2,0-0.3,0c-0.1,0-0.2,0-0.2-0.1c-0.1-0.1-0.1-0.2-0.1-0.3
		c0-0.2,0-0.3,0-0.5v-2.1v-4.3v-1.1c0-0.1,0-0.2,0-0.3c0-0.1,0-0.2,0.1-0.2c0-0.1,0.1-0.1,0.2-0.1c0,0,0.1,0,0.2,0
		c0.1,0,0.2,0,0.3,0c0.1,0,0.2,0,0.3,0c0.1,0,0.2,0,0.2,0.1c0.1,0.1,0.2,0.2,0.2,0.3c0,0.1,0,0.3,0.1,0.4c0,0.1,0.1,0.1,0.1,0.2
		c0.1,0,0.3,0,0.3-0.2c0.1-0.1,0.2-0.2,0.3-0.3c0.2-0.1,0.3-0.2,0.5-0.3c0.2-0.1,0.4-0.2,0.6-0.3c0.1,0,0.2-0.1,0.3-0.1
		c0.1,0,0.2,0,0.3-0.1c0.1,0,0.1,0,0.2,0C241.2,64.9,241.3,64.9,241.4,64.9z"/>
	<path class="st3" d="M254.1,73.2c0,0.2,0,0.3,0,0.5c0,0.1,0,0.3-0.1,0.4c-0.1,0.1-0.2,0.1-0.3,0.1c-0.1,0-0.3,0-0.4,0
		c-0.1,0-0.1,0-0.2,0c-0.1,0-0.1,0-0.2,0c-0.1,0-0.2-0.1-0.2-0.1c0-0.1-0.1-0.1-0.1-0.2c0-0.1,0-0.2-0.1-0.2c0,0,0,0,0-0.1
		c0,0,0,0-0.1-0.1c-0.1,0-0.2,0-0.3,0.1c-0.1,0.1-0.1,0.1-0.2,0.2c-0.2,0.2-0.5,0.3-0.7,0.4c-0.2,0.1-0.5,0.2-0.7,0.2
		c-0.3,0-0.6,0.1-0.8,0.1c-0.3,0-0.6,0-0.9-0.1c-0.3,0-0.5-0.1-0.7-0.2c-0.6-0.3-1.1-0.6-1.5-1.1c-0.4-0.4-0.7-1-0.9-1.7
		c0-0.1-0.1-0.2-0.1-0.3c0-0.1,0-0.2-0.1-0.3c0-0.1,0-0.1,0-0.2c0-0.1,0-0.1,0-0.2c0-0.1,0-0.1,0-0.2c0-0.1,0-0.1,0-0.2v-0.2
		c0-0.1,0-0.1,0-0.2c0-0.1,0-0.2,0-0.2v-0.2c0-0.1,0-0.2,0-0.3c0-0.1,0-0.2,0-0.3c0-0.1,0-0.1,0-0.2c0,0,0-0.1,0-0.2
		c0-0.1,0.1-0.2,0.1-0.3c0-0.1,0.1-0.2,0.1-0.3c0.2-0.4,0.4-0.9,0.6-1.2c0.2-0.4,0.5-0.7,0.9-0.9c0.2-0.1,0.4-0.3,0.6-0.4
		c0.2-0.1,0.5-0.2,0.7-0.2c0.1,0,0.2,0,0.2,0c0.1,0,0.2,0,0.2-0.1h0.2c0.1,0,0.2,0,0.4,0c0.2,0,0.3,0,0.4,0c0,0,0.1,0,0.2,0
		c0.1,0,0.3,0.1,0.4,0.1c0.1,0,0.3,0.1,0.4,0.1c0.2,0.1,0.3,0.1,0.5,0.2c0.2,0.1,0.3,0.2,0.5,0.3c0.1,0.1,0.1,0.1,0.2,0.2
		c0.1,0.1,0.2,0.1,0.3,0.1c0,0,0-0.1,0.1-0.1c0,0,0-0.1,0-0.1c0-0.1,0-0.2,0-0.4c0-0.2,0-0.3,0-0.4v-2c0-0.2,0-0.3,0-0.6
		c0-0.2,0-0.4,0.1-0.4c0-0.1,0.1-0.1,0.2-0.2c0,0,0.1,0,0.1,0c0,0,0.1,0,0.1,0c0.2,0,0.3,0,0.5,0c0.2,0,0.3,0.1,0.4,0.2
		c0.1,0.1,0.1,0.2,0.1,0.4c0,0.1,0,0.3,0,0.4V73.2z M252.7,69.9c0-0.1,0-0.1,0-0.2c0-0.1,0-0.2,0-0.2v-0.3c0-0.1,0-0.2-0.1-0.3
		c0-0.1,0-0.2-0.1-0.3c0-0.1,0-0.2-0.1-0.3c0-0.1,0-0.2-0.1-0.2c-0.1-0.4-0.3-0.7-0.5-0.9c-0.2-0.3-0.5-0.5-0.8-0.6
		c-0.1-0.1-0.2-0.1-0.4-0.1c-0.1,0-0.3-0.1-0.4-0.1c-0.1,0-0.2,0-0.3,0c-0.1,0-0.2,0-0.3,0c-0.1,0-0.1,0-0.2,0c0,0-0.1,0-0.2,0
		c-0.1,0-0.2,0-0.3,0.1c-0.1,0-0.2,0.1-0.3,0.1c-0.4,0.2-0.7,0.4-0.9,0.7c-0.2,0.3-0.4,0.7-0.6,1.1c0,0.1-0.1,0.3-0.1,0.4
		c0,0.1,0,0.3-0.1,0.4c0,0,0,0.1,0,0.1c0,0,0,0.1,0,0.1c0,0.1,0,0.1,0,0.2c0,0.1,0,0.1,0,0.2c0,0.1,0,0.3,0,0.4c0,0.1,0,0.2,0,0.3
		c0,0,0,0.1,0,0.2c0,0.1,0,0.2,0.1,0.2c0,0.1,0,0.2,0.1,0.2c0.1,0.4,0.3,0.8,0.5,1.1c0.2,0.3,0.5,0.5,0.8,0.7
		c0.1,0.1,0.2,0.1,0.3,0.1c0.1,0,0.2,0.1,0.4,0.1c0.1,0,0.1,0,0.2,0c0.1,0,0.1,0,0.2,0c0,0,0.1,0,0.1,0c0.1,0,0.1,0,0.1,0h0.2
		c0,0,0.1,0,0.2,0c0.1,0,0.2,0,0.3-0.1c0.1,0,0.2,0,0.3-0.1c0.4-0.2,0.7-0.4,0.9-0.6c0.2-0.3,0.4-0.6,0.6-1c0.1-0.1,0.1-0.3,0.1-0.4
		c0-0.1,0.1-0.3,0.1-0.4c0,0,0-0.1,0-0.1c0,0,0-0.1,0-0.1c0-0.1,0-0.1,0-0.2C252.7,70,252.7,70,252.7,69.9z"/>
	<path class="st3" d="M262.7,64.8c1,0,1.8,0.1,2.4,0.4c0.6,0.3,1.2,0.7,1.5,1.3c0.2,0.3,0.3,0.6,0.4,1c0,0.1,0,0.1,0.1,0.2
		c0,0.1,0,0.2,0,0.2c0,0.1-0.1,0.2-0.2,0.2c-0.1,0-0.3,0-0.4,0h-0.9c-0.1,0-0.2,0-0.3,0c-0.1,0-0.2,0-0.3-0.1
		c-0.1,0-0.2-0.1-0.2-0.2c0-0.1-0.1-0.2-0.1-0.3c-0.1-0.1-0.1-0.2-0.2-0.4c-0.1-0.1-0.2-0.2-0.3-0.3c-0.2-0.1-0.3-0.2-0.5-0.2
		c-0.1,0-0.1,0-0.2,0s-0.1,0-0.2,0H263c-0.2,0-0.4,0-0.6,0.1c-0.3,0.1-0.6,0.3-0.8,0.5c-0.2,0.2-0.4,0.5-0.5,0.8
		c-0.1,0.1-0.1,0.3-0.1,0.4c0,0.1-0.1,0.3-0.1,0.5c0,0,0,0.1,0,0.1c0,0,0,0.1,0,0.1c0,0.1,0,0.3,0,0.5c0,0.2,0,0.4,0,0.5
		c0,0.1,0,0.2,0,0.2c0,0.1,0,0.2,0,0.2c0,0.1,0,0.2,0,0.2c0.1,0.3,0.2,0.5,0.3,0.7c0.1,0.2,0.3,0.4,0.5,0.6c0,0,0.1,0.1,0.2,0.1
		c0.1,0.1,0.3,0.1,0.4,0.2c0.1,0,0.3,0,0.5,0.1c0,0,0.1,0,0.1,0c0,0,0.1,0,0.1,0h0.2c0.1,0,0.2,0,0.2-0.1c0.1,0,0.2,0,0.2-0.1
		c0.4-0.2,0.6-0.4,0.8-0.7c0-0.1,0.1-0.1,0.1-0.2c0-0.1,0.1-0.1,0.1-0.2c0-0.1,0.1-0.2,0.1-0.3c0-0.1,0.1-0.2,0.2-0.2
		c0.1,0,0.3-0.1,0.5-0.1c0.2,0,0.4,0,0.6,0c0.1,0,0.2,0,0.3,0c0.1,0,0.2,0,0.2,0h0.1c0,0,0.1,0,0.1,0c0,0,0.1,0,0.1,0
		c0.1,0,0.1,0.1,0.1,0.2c0,0.1,0,0.2,0,0.3c-0.1,0.4-0.2,0.7-0.4,1c-0.5,0.9-1.3,1.5-2.3,1.9c-0.1,0-0.2,0.1-0.4,0.1
		c-0.1,0-0.3,0-0.4,0.1c-0.1,0-0.1,0-0.2,0c-0.1,0-0.1,0-0.2,0h-0.2c-0.1,0-0.1,0-0.3,0c-0.1,0-0.2,0-0.3,0c-0.1,0-0.2,0-0.3,0
		c-0.1,0-0.2,0-0.2,0c-0.1,0-0.1,0-0.2,0c-0.1,0-0.1,0-0.2,0c-0.1,0-0.3-0.1-0.4-0.1c-0.1,0-0.2-0.1-0.3-0.1c-0.6-0.2-1-0.5-1.4-0.9
		c-0.4-0.4-0.7-0.8-0.9-1.4c-0.1-0.1-0.1-0.2-0.1-0.3c0-0.1-0.1-0.3-0.1-0.4c0,0,0-0.1,0-0.1c0,0,0-0.1,0-0.2c0-0.1,0-0.2,0-0.3
		c0-0.1,0-0.2,0-0.3v-0.3c0-0.1,0-0.1,0-0.2c0-0.1,0-0.1,0-0.2c0-0.1,0-0.1,0-0.2c0,0,0-0.1,0-0.1c0-0.1,0-0.2,0-0.2
		c0-0.1,0-0.1,0-0.2c0.1-0.2,0.1-0.4,0.1-0.6c0-0.2,0.1-0.4,0.2-0.6c0.3-0.6,0.6-1.1,1-1.5c0.4-0.4,0.9-0.7,1.5-1
		c0.2-0.1,0.3-0.1,0.5-0.2c0.2,0,0.4-0.1,0.5-0.1c0.1,0,0.2,0,0.3,0C262.5,64.8,262.6,64.8,262.7,64.8z"/>
	<path class="st3" d="M277.3,69.3c0,0.1,0,0.2,0,0.3c0,0.1,0,0.2,0,0.3V70c0,0.1,0,0.2,0,0.3c0,0.1,0,0.2,0,0.3c0,0.1,0,0.2-0.1,0.2
		c0,0.1,0,0.1,0,0.2c0,0.1-0.1,0.3-0.1,0.4c0,0.1-0.1,0.3-0.1,0.4c-0.2,0.6-0.6,1-1,1.4c-0.4,0.4-0.9,0.6-1.4,0.9
		c-0.1,0.1-0.3,0.1-0.4,0.1c-0.1,0-0.3,0.1-0.4,0.1c-0.1,0-0.1,0-0.2,0c-0.1,0-0.1,0-0.2,0c0,0-0.1,0-0.1,0c0,0-0.1,0-0.1,0
		c-0.1,0-0.2,0-0.3,0c-0.1,0-0.2,0-0.3,0h-0.2c-0.1,0-0.1,0-0.2,0c-0.1,0-0.1,0-0.2,0c0,0-0.1,0-0.1,0c0,0-0.1,0-0.1,0
		c-0.1,0-0.2-0.1-0.4-0.1c-0.1,0-0.2-0.1-0.3-0.1c-0.1,0-0.3-0.1-0.4-0.1c-0.1,0-0.2-0.1-0.4-0.2c-0.4-0.2-0.8-0.5-1.1-0.9
		c-0.3-0.3-0.5-0.7-0.7-1.2c-0.1-0.1-0.1-0.2-0.1-0.3c0-0.1-0.1-0.2-0.1-0.4c0-0.1,0-0.1,0-0.2c0,0,0-0.1,0-0.2c0-0.1,0-0.2,0-0.3
		c0-0.1,0-0.2,0-0.3c0-0.1,0-0.1,0-0.2c0,0,0-0.1,0-0.2c0-0.1,0-0.2,0-0.3c0-0.1,0-0.2,0-0.3v-0.1c0-0.1,0-0.1,0-0.2
		c0-0.1,0-0.1,0-0.2c0-0.1,0-0.1,0-0.2c0-0.1,0-0.1,0-0.2c0-0.2,0.1-0.3,0.1-0.5c0-0.1,0.1-0.3,0.1-0.4c0.2-0.5,0.5-0.9,0.8-1.2
		c0.3-0.3,0.7-0.6,1.1-0.9c0.1-0.1,0.2-0.1,0.4-0.2c0.1,0,0.3-0.1,0.4-0.2c0.2-0.1,0.3-0.1,0.5-0.1c0.2,0,0.3-0.1,0.5-0.1
		c0.1,0,0.2,0,0.3,0c0.1,0,0.2,0,0.2,0c0.7,0,1.3,0.1,1.8,0.2c0.5,0.2,0.9,0.4,1.3,0.6c0.1,0.1,0.3,0.2,0.4,0.3
		c0.1,0.1,0.2,0.2,0.3,0.4c0.1,0.1,0.2,0.2,0.3,0.4c0.1,0.1,0.2,0.2,0.2,0.4c0.1,0.1,0.1,0.3,0.2,0.4c0,0.1,0.1,0.3,0.2,0.5
		c0,0.1,0.1,0.2,0.1,0.3c0,0.1,0,0.2,0.1,0.3c0,0,0,0.1,0,0.1c0,0,0,0.1,0,0.1c0,0.1,0,0.1,0,0.2C277.3,69.1,277.3,69.2,277.3,69.3z
		 M274.8,69.9c0-0.1,0-0.1,0-0.3c0-0.1,0-0.2,0-0.3v-0.1c0-0.1,0-0.1,0-0.2c0-0.1,0-0.1,0-0.2c0,0,0-0.1,0-0.1c0-0.1,0-0.2-0.1-0.3
		c0-0.1,0-0.2-0.1-0.3c-0.1-0.3-0.3-0.6-0.5-0.8c-0.2-0.2-0.4-0.4-0.7-0.5c-0.1,0-0.1,0-0.2-0.1c-0.1,0-0.1,0-0.2-0.1
		c-0.1,0-0.2,0-0.3,0c-0.1,0-0.2,0-0.3,0c0,0-0.1,0-0.1,0c0,0-0.1,0-0.1,0c-0.1,0-0.2,0-0.2,0.1c-0.1,0-0.1,0-0.2,0.1
		c-0.3,0.1-0.5,0.3-0.7,0.6c-0.2,0.2-0.3,0.5-0.4,0.8c0,0.1-0.1,0.2-0.1,0.4c0,0.1,0,0.3-0.1,0.4c0,0.1,0,0.1,0,0.2
		c0,0.1,0,0.1,0,0.2c0,0.1,0,0.2,0,0.4c0,0.2,0,0.3,0,0.4v0.2c0,0.1,0,0.2,0.1,0.3c0,0.1,0,0.2,0.1,0.3c0.1,0.4,0.2,0.6,0.4,0.9
		c0.1,0.2,0.4,0.4,0.6,0.6c0.1,0.1,0.2,0.1,0.3,0.1c0.1,0,0.2,0.1,0.3,0.1c0,0,0.1,0,0.1,0c0,0,0.1,0,0.1,0c0,0,0.1,0,0.2,0
		c0.1,0,0.1,0,0.1,0h0.1c0.1,0,0.2,0,0.3-0.1c0.1,0,0.2,0,0.3-0.1c0.3-0.1,0.6-0.3,0.7-0.5c0.2-0.2,0.3-0.4,0.5-0.7
		c0-0.1,0.1-0.2,0.1-0.4c0-0.1,0.1-0.2,0.1-0.4c0,0,0-0.1,0-0.1c0,0,0-0.1,0-0.1c0-0.1,0-0.1,0-0.2S274.8,70,274.8,69.9z"/>
	<path class="st3" d="M287.3,73.2c0,0.2,0,0.3,0,0.5c0,0.2,0,0.3-0.1,0.4c-0.1,0.1-0.1,0.1-0.2,0.1c-0.1,0-0.2,0-0.3,0h-1
		c-0.1,0-0.2,0-0.3,0c-0.1,0-0.2,0-0.2-0.1c-0.1-0.1-0.1-0.1-0.1-0.2c0-0.1,0-0.2-0.1-0.3c0,0,0,0-0.1-0.1c0,0,0,0-0.1-0.1
		c-0.1,0-0.2,0-0.3,0.1c-0.1,0.1-0.1,0.1-0.2,0.2c-0.1,0.1-0.2,0.1-0.2,0.2c-0.1,0-0.1,0.1-0.2,0.1c0,0-0.1,0-0.2,0.1
		c-0.1,0-0.1,0-0.2,0.1c-0.2,0.1-0.3,0.1-0.5,0.2c-0.1,0-0.1,0-0.2,0c0,0-0.1,0-0.1,0c-0.1,0-0.1,0-0.2,0c0,0-0.1,0-0.2,0h-0.2
		c-0.1,0-0.2,0-0.3,0c-0.1,0-0.2,0-0.3,0c-0.1,0-0.2,0-0.2,0c-0.1,0-0.1,0-0.2,0c-0.1,0-0.3-0.1-0.4-0.1c-0.1,0-0.3-0.1-0.4-0.1
		c-0.4-0.2-0.8-0.5-1.1-0.8c-0.3-0.4-0.6-0.8-0.8-1.2c-0.1-0.1-0.1-0.3-0.1-0.4c0-0.1-0.1-0.3-0.1-0.4c0,0,0-0.1,0-0.1
		c0,0,0-0.1,0-0.2c0-0.1,0-0.2-0.1-0.3c0-0.1,0-0.2-0.1-0.3c0,0,0-0.1,0-0.1c0,0,0-0.1,0-0.1c0-0.1,0-0.1,0-0.2s0-0.1,0-0.2
		c0-0.1,0-0.1,0-0.2c0-0.1,0-0.1,0-0.2c0-0.1,0-0.1,0-0.2c0-0.1,0-0.1,0-0.2c0-0.1,0-0.1,0-0.2c0-0.1,0-0.1,0-0.2
		c0-0.1,0-0.3,0.1-0.4c0-0.1,0-0.2,0.1-0.4c0-0.1,0.1-0.3,0.1-0.4c0-0.1,0.1-0.3,0.1-0.4c0.2-0.4,0.4-0.7,0.6-1c0,0,0.1-0.1,0.1-0.1
		c0,0,0.1-0.1,0.1-0.1c0-0.1,0.1-0.1,0.1-0.2c0,0,0.1-0.1,0.2-0.1c0,0,0.1-0.1,0.1-0.1c0,0,0.1-0.1,0.1-0.1c0.3-0.2,0.6-0.4,1-0.5
		c0.1,0,0.2,0,0.3-0.1c0.1,0,0.2,0,0.3-0.1c0.1,0,0.2,0,0.3,0c0.1,0,0.3,0,0.4,0c0.1,0,0.3,0,0.4,0c0.1,0,0.2,0,0.3,0.1
		c0.2,0.1,0.3,0.1,0.5,0.2c0.2,0,0.3,0.1,0.5,0.2c0.1,0.1,0.2,0.1,0.2,0.2c0.1,0.1,0.1,0.1,0.2,0.2c0,0,0.1,0.1,0.2,0.1
		c0.1,0.1,0.2,0.1,0.3,0c0,0,0.1-0.1,0.1-0.1c0-0.1,0-0.1,0-0.2v-0.2c0,0,0-0.1,0-0.1c0,0,0-0.1,0-0.1v-2.4c0-0.1,0-0.3,0-0.4
		c0-0.2,0-0.3,0.1-0.4c0-0.1,0.1-0.2,0.3-0.2c0,0,0,0,0.1,0c0,0,0,0,0.1,0h1.3c0.1,0,0.3,0,0.4,0c0.1,0,0.2,0.1,0.3,0.1
		c0.1,0.1,0.1,0.2,0.1,0.4c0,0.1,0,0.3,0,0.4V73.2z M284.9,69.7c0,0,0-0.1,0-0.2c0-0.1,0-0.1,0-0.2c0-0.1,0-0.2,0-0.4
		c0-0.1,0-0.2-0.1-0.3c0-0.1,0-0.2-0.1-0.4c0-0.1-0.1-0.2-0.1-0.3c-0.2-0.4-0.4-0.8-0.7-1c-0.3-0.2-0.8-0.4-1.4-0.4
		c-0.1,0-0.2,0-0.3,0c-0.1,0-0.2,0-0.3,0.1c-0.1,0-0.1,0-0.2,0.1c-0.3,0.1-0.6,0.3-0.7,0.6c-0.2,0.3-0.3,0.6-0.4,0.9
		c0,0.1-0.1,0.2-0.1,0.4c0,0.1,0,0.2-0.1,0.4v0.2c0,0.1,0,0.3,0,0.4c0,0.2,0,0.3,0.1,0.4c0,0,0,0.1,0,0.1c0,0,0,0.1,0,0.1
		c0,0.1,0,0.2,0.1,0.3c0,0.1,0,0.2,0.1,0.3c0.2,0.6,0.5,1.1,1,1.4c0.2,0.1,0.4,0.2,0.6,0.2c0,0,0.1,0,0.2,0c0,0,0.1,0,0.2,0
		c0.1,0,0.1,0,0.2,0c0.1,0,0.2,0,0.3-0.1c0.1,0,0.2,0,0.3-0.1c0.3-0.1,0.5-0.3,0.7-0.5c0.2-0.2,0.3-0.5,0.5-0.8
		c0-0.1,0.1-0.2,0.1-0.3c0-0.1,0-0.2,0.1-0.4c0-0.1,0-0.1,0-0.2c0-0.1,0-0.1,0-0.2c0,0,0-0.1,0-0.1c0,0,0-0.1,0-0.2V69.7z"/>
	<path class="st3" d="M297.4,69.5c0,0.1,0,0.2,0,0.3c0,0.1-0.1,0.2-0.1,0.2c-0.1,0-0.1,0.1-0.3,0.1c-0.1,0-0.2,0-0.4,0
		c-0.1,0-0.3,0-0.4,0c-0.1,0-0.3,0-0.4,0h-4.3c-0.1,0-0.2,0-0.2,0c-0.1,0-0.1,0-0.2,0c-0.1,0-0.2,0.1-0.2,0.1c0,0,0,0.1-0.1,0.1
		c0,0.1,0,0.1,0,0.2c0,0.1,0,0.1,0,0.2c0,0.1,0,0.1,0,0.2c0.1,0.3,0.2,0.5,0.3,0.7c0.1,0.2,0.3,0.3,0.6,0.5c0.1,0.1,0.2,0.1,0.3,0.1
		c0.1,0,0.2,0,0.3,0.1c0.1,0,0.2,0,0.4,0.1c0.2,0,0.3,0,0.4,0h0.2c0.1,0,0.2,0,0.3-0.1c0.1,0,0.2-0.1,0.3-0.1
		c0.1-0.1,0.3-0.1,0.4-0.2c0.1-0.1,0.3-0.2,0.3-0.3c0.1-0.1,0.1-0.2,0.2-0.2c0.1-0.1,0.1-0.1,0.2-0.2c0.1-0.1,0.3-0.1,0.4-0.1
		c0.2,0,0.4,0,0.5,0c0.1,0,0.1,0,0.2,0s0.1,0,0.2,0h0.2c0.1,0,0.2,0.1,0.2,0.1c0,0,0.1,0.1,0.1,0.2c0,0.1,0,0.2,0,0.2
		c-0.1,0.2-0.1,0.3-0.2,0.4c-0.1,0.1-0.2,0.3-0.2,0.4c-0.3,0.4-0.6,0.7-0.9,0.9c-0.3,0.2-0.7,0.4-1.2,0.6c-0.1,0-0.3,0.1-0.4,0.1
		c-0.1,0-0.3,0-0.4,0.1c0,0-0.1,0-0.2,0c-0.1,0-0.1,0-0.1,0h-0.2c-0.1,0-0.1,0-0.2,0c-0.1,0-0.1,0-0.2,0c-0.1,0-0.2,0-0.2,0
		c-0.1,0-0.1,0-0.2,0c-0.1,0-0.1,0-0.2,0c-0.1,0-0.1,0-0.2,0c-0.1,0-0.3,0-0.4-0.1c-0.1,0-0.2-0.1-0.4-0.1c-0.1,0-0.3-0.1-0.4-0.1
		c-0.1,0-0.2-0.1-0.3-0.1c-0.4-0.2-0.7-0.5-1-0.8c-0.3-0.3-0.5-0.7-0.7-1.1c-0.1-0.1-0.1-0.3-0.1-0.4c0-0.1-0.1-0.3-0.1-0.4
		c0,0,0-0.1,0-0.1c0,0,0-0.1,0-0.1c0-0.1-0.1-0.3-0.1-0.5c0-0.2,0-0.3,0-0.5c0-0.1,0-0.1,0-0.2c0-0.1,0-0.1,0-0.2v-0.2l0.1-0.4
		c0-0.2,0.1-0.4,0.1-0.6c0-0.2,0.1-0.4,0.2-0.5c0.5-1.2,1.4-2.1,2.6-2.6c0.2-0.1,0.3-0.1,0.5-0.2c0.2,0,0.4-0.1,0.5-0.1
		c0.1,0,0.2,0,0.3,0c0.1,0,0.2,0,0.3,0c0.6,0,1.1,0.1,1.5,0.2c0.4,0.1,0.8,0.3,1.2,0.6c0.1,0.1,0.2,0.1,0.3,0.2
		c0.1,0.1,0.2,0.2,0.3,0.3c0,0.1,0.1,0.1,0.1,0.1c0.1,0.1,0.2,0.3,0.3,0.4c0.1,0.1,0.2,0.3,0.3,0.4c0.1,0.1,0.1,0.2,0.2,0.3
		c0,0.1,0.1,0.2,0.1,0.4c0.1,0.2,0.1,0.3,0.1,0.5c0,0.2,0.1,0.3,0.1,0.5c0,0.1,0,0.2,0,0.3c0,0.1,0,0.2,0,0.3V69.5z M294.8,68.5
		c0.1-0.1,0.1-0.3,0-0.4c-0.1-0.2-0.1-0.3-0.1-0.4c-0.2-0.3-0.4-0.6-0.7-0.7s-0.6-0.3-1.1-0.3c0,0-0.1,0-0.1,0c0,0-0.1,0-0.1,0
		c-0.1,0-0.1,0-0.2,0c-0.1,0-0.1,0-0.2,0c-0.5,0.2-0.9,0.5-1.1,1c0,0,0,0.1-0.1,0.2c0,0.1-0.1,0.2-0.1,0.2c0,0.1,0,0.2,0,0.2
		c0,0.1,0.1,0.1,0.1,0.2c0.1,0.1,0.2,0.1,0.4,0.1c0.2,0,0.3,0,0.5,0h2c0.2,0,0.3,0,0.5,0C294.6,68.7,294.7,68.6,294.8,68.5z"/>
</g>
</svg>
